<svg width="29" height="29" viewBox="0 0 29 29" fill="none" xmlns="http://www.w3.org/2000/svg">
<path d="M2.57005 9.93646L4.32434 9.95179L6.05812 12.3004L12.4905 12.3566L9.65382 2.41477L11.9929 2.43522L17.7534 12.4026L24.1857 12.4589C24.673 12.4631 25.0856 12.6371 25.4233 12.9807C25.761 13.3243 25.9281 13.7388 25.9246 14.2241C25.9212 14.7095 25.7468 15.1213 25.4015 15.4598C25.0562 15.7982 24.6407 15.9645 24.155 15.9587L17.7226 15.9025L11.7879 25.7677L9.44881 25.7472L12.4597 15.8565L6.02737 15.8002L4.25258 18.1181L2.49829 18.1028L3.7037 14.0299L2.57005 9.93646Z" fill="#10A1D0"/>
</svg>
