<svg width="31" height="30" viewBox="0 0 31 30" fill="none" xmlns="http://www.w3.org/2000/svg">
<path d="M10.2987 8.22125C9.72231 8.22125 9.2244 8.0125 8.80503 7.595C8.38565 7.1775 8.1768 6.68125 8.17847 6.10625C8.18014 5.53125 8.389 5.03458 8.80503 4.61625C9.22106 4.19792 9.71896 3.98958 10.2987 3.99125C10.8785 3.99292 11.376 4.20125 11.7912 4.61625C12.2064 5.03125 12.4157 5.5275 12.419 6.105C12.4223 6.6825 12.2131 7.17917 11.7912 7.595C11.3693 8.01083 10.8718 8.21958 10.2987 8.22125ZM17.9615 23.75H10.5055C9.92907 23.75 9.40986 23.5654 8.94788 23.1963C8.4859 22.8271 8.19769 22.3546 8.08324 21.7788L5.48053 8.75H6.74617L9.3589 21.7313C9.40652 21.9229 9.52306 22.0992 9.70852 22.26C9.89231 22.42 10.0811 22.5 10.2749 22.5H17.9615V23.75ZM24.3235 26.7313L21.1231 21.25H12.0756C11.6153 21.25 11.2248 21.1117 10.904 20.835C10.5832 20.5583 10.3685 20.2063 10.2599 19.7788L8.78498 12.7538C8.6037 11.8988 8.79835 11.1696 9.36893 10.5663C9.94035 9.96458 10.6066 9.66375 11.3676 9.66375C11.9541 9.66375 12.4929 9.83833 12.9841 10.1875C13.4754 10.5367 13.7882 11.0142 13.9227 11.62L15.4453 18.75H20.0968C20.4226 18.75 20.7254 18.8325 21.0053 18.9975C21.2852 19.1625 21.5157 19.4004 21.697 19.7113L25.4075 26.1063L24.3235 26.7313Z" fill="#10A1D0"/>
</svg>
