<svg width="21" height="23" viewBox="0 0 21 23" fill="none" xmlns="http://www.w3.org/2000/svg">
<path d="M5.29874 4.22125C4.72231 4.22125 4.2244 4.0125 3.80503 3.595C3.38565 3.1775 3.1768 2.68125 3.17847 2.10625C3.18014 1.53125 3.389 1.03458 3.80503 0.616251C4.22106 0.197918 4.71896 -0.0104153 5.29874 -0.00874862C5.87851 -0.00708196 6.37599 0.201251 6.79119 0.616251C7.20639 1.03125 7.41565 1.5275 7.419 2.105C7.42234 2.6825 7.21307 3.17917 6.79119 3.595C6.36931 4.01083 5.87182 4.21958 5.29874 4.22125ZM12.9615 19.75H5.5055C4.92907 19.75 4.40986 19.5654 3.94788 19.1963C3.4859 18.8271 3.19769 18.3546 3.08324 17.7788L0.48053 4.75H1.74617L4.3589 17.7313C4.40652 17.9229 4.52306 18.0992 4.70852 18.26C4.89231 18.42 5.08111 18.5 5.27493 18.5H12.9615V19.75ZM19.3235 22.7313L16.1231 17.25H7.07564C6.61534 17.25 6.22478 17.1117 5.90399 16.835C5.58319 16.5583 5.36849 16.2063 5.25989 15.7788L3.78498 8.75375C3.6037 7.89875 3.79835 7.16958 4.36893 6.56625C4.94035 5.96458 5.60658 5.66375 6.36764 5.66375C6.95409 5.66375 7.49293 5.83833 7.98415 6.1875C8.47537 6.53667 8.78823 7.01417 8.92273 7.62L10.4453 14.75H15.0968C15.4226 14.75 15.7254 14.8325 16.0053 14.9975C16.2852 15.1625 16.5157 15.4004 16.697 15.7113L20.4075 22.1063L19.3235 22.7313Z" fill="#10A1D0"/>
</svg>
