<svg width="31" height="30" viewBox="0 0 31 30" fill="none" xmlns="http://www.w3.org/2000/svg">
<g clip-path="url(#clip0_4_3405)">
<path d="M29.9114 15.9935L28.1543 13.2288L29.1965 10.1262C29.2653 9.92095 29.2608 9.69835 29.1839 9.49606C29.1069 9.29377 28.9623 9.12423 28.7743 9.01616L25.9311 7.38116L25.4083 4.15039C25.3731 3.93678 25.2652 3.74179 25.1028 3.59825C24.9404 3.45471 24.7333 3.37139 24.5165 3.36231L21.2372 3.23423L19.2696 0.615003C19.1396 0.441674 18.9534 0.318653 18.7427 0.266897C18.532 0.215141 18.3098 0.237851 18.114 0.331157L15.1517 1.73654L12.1882 0.330003C11.9921 0.237703 11.7701 0.215651 11.5596 0.267565C11.3491 0.319479 11.163 0.442184 11.0326 0.615003L9.06506 3.23423L5.78577 3.36231C5.56912 3.37095 5.36212 3.454 5.19981 3.59741C5.0375 3.74081 4.92986 3.93575 4.89509 4.14923L4.37226 7.38L1.52905 9.015C1.34094 9.1229 1.19602 9.29236 1.11886 9.49466C1.0417 9.69697 1.03705 9.91967 1.10569 10.125L2.14789 13.2277L0.391998 15.9935C0.276168 16.1765 0.227293 16.3939 0.25364 16.6088C0.279987 16.8237 0.37994 17.0229 0.536587 17.1727L2.90439 19.4377L2.63834 22.6985C2.62064 22.9142 2.67821 23.1295 2.80131 23.3078C2.9244 23.4861 3.10547 23.6165 3.31386 23.6769L6.46592 24.5827L7.74871 27.5954C7.83293 27.7951 7.98407 27.9593 8.17628 28.0602C8.36849 28.161 8.58984 28.192 8.80248 28.1481L12.0182 27.4904L14.556 29.5639C14.7283 29.7035 14.94 29.7762 15.1517 29.7762C15.3634 29.7762 15.5739 29.7035 15.7474 29.5639L18.2852 27.4904L21.5009 28.1481C21.937 28.2404 22.38 28.0062 22.5547 27.5954L23.8375 24.5827L26.9895 23.6769C27.198 23.6167 27.3792 23.4863 27.5024 23.308C27.6255 23.1296 27.683 22.9143 27.6651 22.6985L27.399 19.4377L29.7668 17.1727C29.9235 17.0229 30.0234 16.8237 30.0498 16.6088C30.0761 16.3939 30.0272 16.1765 29.9114 15.9935ZM21.9497 11.4808L15.3668 21.3185C15.1182 21.6854 14.733 21.9312 14.3501 21.9312C13.9684 21.9312 13.5415 21.7177 13.2697 21.4454L8.43696 16.5473C8.27855 16.3853 8.18989 16.1679 8.18989 15.9415C8.18989 15.7152 8.27855 15.4978 8.43696 15.3358L9.62953 14.1242C9.70768 14.0458 9.80059 13.9836 9.90293 13.9412C10.0053 13.8987 10.115 13.8769 10.2258 13.8769C10.3366 13.8769 10.4464 13.8987 10.5487 13.9412C10.651 13.9836 10.744 14.0458 10.8221 14.1242L13.9672 17.3112L19.1539 9.55962C19.2154 9.46718 19.2947 9.38788 19.3873 9.32635C19.4798 9.26482 19.5837 9.22229 19.6929 9.20124C19.802 9.18018 19.9143 9.18103 20.0232 9.20374C20.132 9.22644 20.2353 9.27054 20.3268 9.33346L21.7253 10.2923C22.1105 10.5577 22.21 11.0919 21.9497 11.4808Z" fill="#10A1D0"/>
</g>
<defs>
<clipPath id="clip0_4_3405">
<rect width="30.0746" height="30" fill="white" transform="translate(0.11438)"/>
</clipPath>
</defs>
</svg>
