<svg width="20" height="20" viewBox="0 0 20 20" fill="none" xmlns="http://www.w3.org/2000/svg">
<path d="M0 20L1.40583 14.8641C0.538332 13.3608 0.0824998 11.6566 0.0833332 9.90915C0.0858331 4.44582 4.53166 0 9.99414 0C12.645 0.000833332 15.1333 1.03333 17.005 2.90666C18.8758 4.77999 19.9058 7.26998 19.905 9.91831C19.9025 15.3825 15.4566 19.8283 9.99414 19.8283C8.33581 19.8275 6.70165 19.4116 5.25415 18.6216L0 20ZM5.49749 16.8275C6.89415 17.6566 8.22748 18.1533 9.99081 18.1541C14.5308 18.1541 18.2291 14.4591 18.2316 9.91665C18.2333 5.36499 14.5525 1.675 9.99748 1.67333C5.45415 1.67333 1.75833 5.36832 1.75666 9.90998C1.75583 11.7641 2.29916 13.1525 3.21166 14.605L2.37916 17.645L5.49749 16.8275ZM14.9866 12.2741C14.925 12.1708 14.76 12.1091 14.5116 11.985C14.2641 11.8608 13.0466 11.2616 12.8191 11.1791C12.5925 11.0966 12.4275 11.055 12.2616 11.3033C12.0966 11.5508 11.6216 12.1091 11.4775 12.2741C11.3333 12.4391 11.1883 12.46 10.9408 12.3358C10.6933 12.2116 9.89498 11.9508 8.94915 11.1066C8.21331 10.45 7.71582 9.63915 7.57165 9.39081C7.42748 9.14331 7.55665 9.00915 7.67998 8.88581C7.79165 8.77498 7.92748 8.59665 8.05165 8.45165C8.17748 8.30832 8.21832 8.20498 8.30165 8.03915C8.38415 7.87415 8.34332 7.72915 8.28082 7.60498C8.21832 7.48165 7.72332 6.26249 7.51748 5.76665C7.31582 5.28416 7.11165 5.34915 6.95998 5.34165L6.48499 5.33332C6.31999 5.33332 6.05165 5.39499 5.82499 5.64332C5.59832 5.89165 4.95832 6.48999 4.95832 7.70915C4.95832 8.92831 5.84582 10.1058 5.96915 10.2708C6.09332 10.4358 7.71498 12.9375 10.1991 14.01C10.79 14.265 11.2516 14.4175 11.6108 14.5316C12.2041 14.72 12.7441 14.6933 13.1708 14.63C13.6466 14.5591 14.6358 14.0308 14.8425 13.4525C15.0491 12.8733 15.0491 12.3775 14.9866 12.2741Z" fill="#10A1D0"/>
</svg>
