<svg width="21" height="20" viewBox="0 0 21 20" fill="none" xmlns="http://www.w3.org/2000/svg">
<path d="M6.12742 0C6.31353 0 6.49202 0.0737498 6.62363 0.205025C6.75523 0.336301 6.82916 0.514348 6.82916 0.7V2.009H14.3649V0.709C14.3649 0.523348 14.4388 0.345301 14.5704 0.214025C14.702 0.0827498 14.8805 0.009 15.0666 0.009C15.2527 0.009 15.4312 0.0827498 15.5628 0.214025C15.6944 0.345301 15.7683 0.523348 15.7683 0.709V2.009H18.4851C19.0167 2.009 19.5265 2.21958 19.9025 2.59443C20.2784 2.96929 20.4898 3.47774 20.4901 4.008V18.001C20.4898 18.5313 20.2784 19.0397 19.9025 19.4146C19.5265 19.7894 19.0167 20 18.4851 20H2.44528C1.9137 20 1.40388 19.7894 1.02791 19.4146C0.651929 19.0397 0.440573 18.5313 0.440308 18.001L0.440308 4.008C0.440573 3.47774 0.651929 2.96929 1.02791 2.59443C1.40388 2.21958 1.9137 2.009 2.44528 2.009H5.42568V0.699C5.42594 0.513522 5.49999 0.335731 5.63157 0.204672C5.76314 0.0736123 5.94148 -1.89263e-07 6.12742 0ZM1.84379 7.742V18.001C1.84379 18.0798 1.85935 18.1578 1.88958 18.2306C1.9198 18.3034 1.96411 18.3695 2.01996 18.4253C2.07582 18.481 2.14213 18.5252 2.2151 18.5553C2.28808 18.5855 2.36629 18.601 2.44528 18.601H18.4851C18.5641 18.601 18.6423 18.5855 18.7153 18.5553C18.7882 18.5252 18.8545 18.481 18.9104 18.4253C18.9663 18.3695 19.0106 18.3034 19.0408 18.2306C19.071 18.1578 19.0866 18.0798 19.0866 18.001V7.756L1.84379 7.742ZM7.12389 14.619V16.285H5.45275V14.619H7.12389ZM11.3003 14.619V16.285H9.63011V14.619H11.3003ZM15.4776 14.619V16.285H13.8065V14.619H15.4776ZM7.12389 10.642V12.308H5.45275V10.642H7.12389ZM11.3003 10.642V12.308H9.63011V10.642H11.3003ZM15.4776 10.642V12.308H13.8065V10.642H15.4776ZM5.42568 3.408H2.44528C2.36629 3.408 2.28808 3.42352 2.2151 3.45367C2.14213 3.48382 2.07582 3.52802 2.01996 3.58374C1.96411 3.63945 1.9198 3.70559 1.88958 3.77839C1.85935 3.85119 1.84379 3.92921 1.84379 4.008V6.343L19.0866 6.357V4.008C19.0866 3.92921 19.071 3.85119 19.0408 3.77839C19.0106 3.70559 18.9663 3.63945 18.9104 3.58374C18.8545 3.52802 18.7882 3.48382 18.7153 3.45367C18.6423 3.42352 18.5641 3.408 18.4851 3.408H15.7683V4.337C15.7683 4.52265 15.6944 4.7007 15.5628 4.83197C15.4312 4.96325 15.2527 5.037 15.0666 5.037C14.8805 5.037 14.702 4.96325 14.5704 4.83197C14.4388 4.7007 14.3649 4.52265 14.3649 4.337V3.408H6.82916V4.328C6.82916 4.51365 6.75523 4.6917 6.62363 4.82297C6.49202 4.95425 6.31353 5.028 6.12742 5.028C5.94131 5.028 5.76282 4.95425 5.63121 4.82297C5.49961 4.6917 5.42568 4.51365 5.42568 4.328V3.408Z" fill="#10A1D0"/>
</svg>
