<svg width="22" height="22" viewBox="0 0 22 22" fill="none" xmlns="http://www.w3.org/2000/svg">
<path d="M11 1.28906C13.2406 1.28997 15.412 2.06545 17.1463 3.48411C18.8806 4.90278 20.0711 6.87739 20.5161 9.07336C20.9611 11.2693 20.6333 13.5516 19.5881 15.5336C18.5429 17.5155 16.8447 19.0751 14.7812 19.9482C12.408 20.9511 9.73363 20.9701 7.34639 20.0011C4.95914 19.0321 3.05461 17.1545 2.05176 14.7812C1.04891 12.408 1.02989 9.7336 1.99889 7.34639C2.96789 4.95914 4.84553 3.05461 7.21875 2.05176C8.41496 1.54554 9.70109 1.28613 11 1.28906ZM11 0C4.92508 0 0 4.92508 0 11C0 17.0749 4.92508 22 11 22C17.0749 22 22 17.0749 22 11C22 4.92508 17.0749 0 11 0Z" fill="white"/>
<path d="M14.2094 16.924C13.5705 16.881 12.6699 16.6606 11.7907 16.346C8.69097 15.2366 5.6664 12.2808 5.02359 8.14632C4.90929 7.41026 5.02961 6.7378 5.58734 6.19038C5.77425 6.00733 5.94054 5.80366 6.12316 5.61632C6.81066 4.90862 7.81527 4.89057 8.52726 5.57034C8.75285 5.78518 8.9823 5.99702 9.2023 6.21874C9.50356 6.51582 9.67798 6.91808 9.68896 7.34103C9.69994 7.76399 9.54661 8.17475 9.26117 8.48706C9.08929 8.67784 8.90882 8.85917 8.7275 9.04007C8.52941 9.23772 8.2832 9.35116 8.01894 9.43366C7.69281 9.5359 7.63222 9.6726 7.78047 9.9841C8.71718 11.946 10.1834 13.3587 12.1792 14.2221C12.446 14.3373 12.5693 14.2853 12.6768 14.0206C12.9122 13.4401 13.3441 13.0168 13.8403 12.6748C14.4019 12.2881 15.2063 12.374 15.7383 12.8312C16.0299 13.0818 16.3086 13.3471 16.5732 13.6261C16.8579 13.9307 17.016 14.3322 17.0156 14.7491C17.0152 15.166 16.8563 15.5672 16.571 15.8712C16.4881 15.9615 16.4026 16.0496 16.3231 16.1424C15.8444 16.6988 15.2373 16.9592 14.2094 16.924Z" fill="white"/>
</svg>
