<svg width="14" height="18" viewBox="0 0 14 18" fill="none" xmlns="http://www.w3.org/2000/svg">
<path d="M9.17636 0.371216C9.33062 0.204576 9.5398 0.110962 9.75791 0.110962C9.97602 0.110962 10.1852 0.204576 10.3395 0.371216L13.6297 3.92677C13.7839 4.09346 13.8705 4.31952 13.8705 4.55522C13.8705 4.79092 13.7839 5.01697 13.6297 5.18366L10.3395 8.73922C10.1843 8.90113 9.97654 8.99073 9.76087 8.9887C9.5452 8.98668 9.33889 8.8932 9.18638 8.72839C9.03388 8.56358 8.94737 8.34064 8.94549 8.10757C8.94362 7.87451 9.02653 7.64997 9.17636 7.48233L11.0625 5.44411H1.53237C1.31422 5.44411 1.105 5.35045 0.950737 5.18376C0.796478 5.01706 0.709816 4.79096 0.709816 4.55522C0.709816 4.31947 0.796478 4.09338 0.950737 3.92668C1.105 3.75998 1.31422 3.66633 1.53237 3.66633H11.0625L9.17636 1.62811C9.02216 1.46141 8.93553 1.23536 8.93553 0.999661C8.93553 0.763959 9.02216 0.537908 9.17636 0.371216ZM5.40413 9.26011C5.55834 9.4268 5.64496 9.65285 5.64496 9.88855C5.64496 10.1243 5.55834 10.3503 5.40413 10.517L3.51802 12.5552H13.0481C13.2663 12.5552 13.4755 12.6489 13.6298 12.8156C13.784 12.9823 13.8707 13.2084 13.8707 13.4441C13.8707 13.6799 13.784 13.9059 13.6298 14.0726C13.4755 14.2393 13.2663 14.333 13.0481 14.333H3.51802L5.40413 16.3712C5.55397 16.5389 5.63687 16.7634 5.635 16.9965C5.63313 17.2295 5.54662 17.4525 5.39411 17.6173C5.2416 17.7821 5.0353 17.8756 4.81962 17.8776C4.60395 17.8796 4.39618 17.79 4.24104 17.6281L0.950824 14.0726C0.796619 13.9059 0.709992 13.6798 0.709992 13.4441C0.709992 13.2084 0.796619 12.9824 0.950824 12.8157L4.24104 9.26011C4.39529 9.09346 4.60447 8.99985 4.82259 8.99985C5.0407 8.99985 5.24988 9.09346 5.40413 9.26011Z" fill="#737373"/>
</svg>
