<svg width="10" height="7" viewBox="0 0 10 7" fill="none" xmlns="http://www.w3.org/2000/svg">
<path fill-rule="evenodd" clip-rule="evenodd" d="M0.112982 0.146871C0.148705 0.10032 0.191143 0.0633864 0.237865 0.0381863C0.284586 0.0129863 0.334673 1.52588e-05 0.385258 1.52588e-05C0.435842 1.52588e-05 0.485929 0.0129863 0.532651 0.0381863C0.579373 0.0633864 0.62181 0.10032 0.657534 0.146871L5.0001 5.79243L9.34267 0.146871C9.37842 0.100395 9.42087 0.0635283 9.46759 0.0383756C9.51431 0.0132229 9.56438 0.000276976 9.61494 0.000276976C9.66551 0.000276976 9.71558 0.0132229 9.7623 0.0383756C9.80902 0.0635283 9.85146 0.100395 9.88722 0.146871C9.92298 0.193347 9.95134 0.248522 9.97069 0.309246C9.99004 0.36997 10 0.435054 10 0.500781C10 0.566508 9.99004 0.631592 9.97069 0.692316C9.95134 0.75304 9.92298 0.808215 9.88722 0.854691L5.27238 6.85316C5.23665 6.89971 5.19422 6.93664 5.14749 6.96184C5.10077 6.98704 5.05068 7.00002 5.0001 7.00002C4.94952 7.00002 4.89943 6.98704 4.85271 6.96184C4.80599 6.93664 4.76355 6.89971 4.72783 6.85316L0.112982 0.854691C0.0771683 0.808257 0.0487541 0.753095 0.0293668 0.692366C0.00997949 0.631636 0 0.566532 0 0.500781C0 0.43503 0.00997949 0.369926 0.0293668 0.309196C0.0487541 0.248467 0.0771683 0.193305 0.112982 0.146871Z" fill="#10A1D0"/>
</svg>
