<svg width="46" height="29" viewBox="0 0 46 29" fill="none" xmlns="http://www.w3.org/2000/svg">
<path d="M7.21768 28.9942L9.06022 19.8311H12.0489L10.2204 28.9942H7.21768ZM16.257 25.9919H18.1587L17.6667 22.638L16.257 25.9919ZM12.0489 28.9942L16.5869 19.8311H19.5389L21.3969 28.9942H18.6282L18.459 27.903H15.507L15.0376 28.9942H12.0489ZM24.1572 28.9942L25.1849 22.1022H22.5642L23.0125 19.7945H31.0593L30.611 22.1022H28.1144L27.1078 28.9942H24.1572ZM34.2158 25.9919H36.1246L35.6326 22.638L34.2158 25.9919ZM30.0316 28.9942L34.5541 19.8311H37.5061L39.3642 28.9942H36.5672L36.4347 27.903H33.4827L33.0132 28.9942H30.0316ZM45.9054 9.4825H31.815C31.3004 12.0531 29.51 14.1991 25.9405 15.6855C26.3522 16.9089 27.7323 18.0367 29.1632 18.0367H36.8069C37.9742 18.0367 38.8989 17.0622 39.2739 16.2719H31.5062C31.0283 16.1917 31.0072 15.8036 31.4837 15.767H39.1203C40.1043 15.767 40.9995 14.9247 41.5211 14.0163H32.6298C32.1815 13.9431 32.1815 13.5691 32.6298 13.4959H41.5944C42.498 13.4959 43.3199 12.4483 43.6583 11.7452H33.8267C33.3347 11.6791 33.3347 11.2248 33.8267 11.2108H43.8345C44.6197 11.2108 45.3767 10.3614 45.9054 9.4825ZM0.793457 9.4825H14.8839C15.39 12.0531 17.1888 14.1991 20.7428 15.6855C20.3396 16.9089 18.9581 18.0367 17.5201 18.0367H9.89197C8.7247 18.0367 7.7999 17.0622 7.42491 16.2719H15.1926C15.6621 16.1917 15.6917 15.8036 15.2152 15.767H7.57153C6.58752 15.767 5.69233 14.9247 5.18482 14.0163H14.0846C14.5329 13.9431 14.5329 13.5691 14.0846 13.4959H5.11997C4.21633 13.4959 3.39444 12.4483 3.04905 11.7452H12.8877C13.3726 11.6791 13.3726 11.2248 12.8877 11.2108H2.87284C2.08761 11.2108 1.32352 10.3614 0.794867 9.4825H0.793457ZM18.7818 1.77063C19.3034 2.21781 19.8829 2.60594 20.5074 2.85484C21.036 1.82266 21.7705 0.928282 22.629 0.13797C21.2193 0.313751 19.8829 0.877657 18.7818 1.77063ZM16.2866 6.88235H19.4219C19.4881 5.64485 19.7743 4.43547 20.2804 3.30063C19.5968 3.00135 18.9609 2.60385 18.3928 2.12078C17.1193 3.38952 16.3675 5.08745 16.2852 6.88094L16.2866 6.88235ZM23.1069 3.94609V6.88375H19.9646C19.9931 5.70795 20.2577 4.54979 20.7428 3.47781C21.5009 3.75829 22.299 3.91637 23.1069 3.94609ZM27.917 1.77063C27.4048 2.22329 26.822 2.58951 26.1915 2.85484C25.6479 1.8353 24.9272 0.920148 24.0628 0.152032C25.476 0.313615 26.8134 0.875256 27.917 1.77063ZM30.4052 6.88235H27.277C27.2326 5.64567 26.9482 4.42932 26.4396 3.30063C27.1078 2.98563 27.7394 2.5975 28.2906 2.12078C29.5836 3.37669 30.3411 5.0818 30.4052 6.88094V6.88235ZM23.6145 3.94609V6.88375H26.7356C26.7356 5.69688 26.4424 4.56906 25.9575 3.47781C25.2069 3.75743 24.415 3.91552 23.6145 3.94609ZM18.7818 12.5158C19.3034 12.1052 19.8984 11.6594 20.5074 11.447C21.0498 12.4609 21.7681 13.3707 22.629 14.1344C21.2208 13.9619 19.8886 13.4014 18.7818 12.5158ZM16.2866 7.38859H19.4219C19.4835 8.63469 19.7745 9.85883 20.2804 10.9998C19.5999 11.3013 18.9646 11.6955 18.3928 12.1713C17.1199 10.893 16.3701 9.18839 16.2866 7.38859ZM23.1069 10.3319V7.38719H19.9646C19.9872 8.57406 20.2578 9.74547 20.7428 10.7931C21.5012 10.5149 22.2993 10.3592 23.1069 10.3319ZM27.917 12.5158C27.4032 12.0692 26.8206 11.7083 26.1915 11.447C25.648 12.4621 24.9271 13.3722 24.0628 14.1344C25.4725 13.9586 26.8089 13.3947 27.917 12.5158ZM30.4052 7.38859H27.277C27.2359 8.63521 26.9515 9.86186 26.4396 10.9998C27.1078 11.3078 27.7098 11.6805 28.2906 12.1713C29.5747 10.9 30.33 9.19172 30.4052 7.38859ZM23.6145 10.3319V7.38719H26.7356C26.7356 8.57406 26.4424 9.72297 25.9575 10.7931C25.2066 10.5158 24.4147 10.3601 23.6145 10.3319ZM23.1069 0.444532C22.2332 1.15421 21.5136 2.03417 20.9923 3.03063C21.6676 3.26547 22.388 3.44828 23.1069 3.44828V0.444532ZM23.6145 0.444532C24.4858 1.15079 25.1986 2.03187 25.7065 3.03063C25.0398 3.29328 24.3312 3.43474 23.6145 3.44828V0.444532ZM23.1069 13.8405C22.2273 13.1311 21.5068 12.2452 20.9923 11.2403C21.6676 10.9984 22.388 10.8592 23.1069 10.8592V13.8405ZM23.6145 13.863C24.482 13.1356 25.1935 12.2412 25.7065 11.2333C25.0319 11.006 24.3264 10.8827 23.6145 10.8677V13.863Z" fill="#10A1D0"/>
</svg>
