<svg width="18" height="18" viewBox="0 0 18 18" fill="none" xmlns="http://www.w3.org/2000/svg">
<path d="M9.23114 0.749817C7.59944 0.749817 6.0044 1.23367 4.64769 2.14019C3.29099 3.04671 2.23356 4.33519 1.60913 5.84268C0.984715 7.35016 0.821338 9.00897 1.13967 10.6093C1.45799 12.2096 2.24373 13.6797 3.39751 14.8335C4.5513 15.9873 6.0213 16.773 7.62165 17.0913C9.222 17.4096 10.8808 17.2463 12.3883 16.6219C13.8958 15.9974 15.1843 14.94 16.0908 13.5833C16.9973 12.2266 17.4812 10.6315 17.4812 8.99982C17.4786 6.81257 16.6085 4.71565 15.062 3.16903C13.5153 1.62242 11.4184 0.752398 9.23114 0.749817ZM12.0114 11.7801C11.8708 11.9207 11.68 11.9997 11.4811 11.9997C11.2823 11.9997 11.0915 11.9207 10.9509 11.7801L8.7009 9.53007C8.56023 9.38945 8.48118 9.19871 8.48114 8.99982V4.49982C8.48114 4.30091 8.56016 4.11014 8.70082 3.96948C8.84147 3.82884 9.03223 3.74982 9.23114 3.74982C9.43005 3.74982 9.62082 3.82884 9.76147 3.96948C9.90213 4.11014 9.98115 4.30091 9.98115 4.49982V8.68932L12.0114 10.7196C12.152 10.8602 12.231 11.0509 12.231 11.2498C12.231 11.4487 12.152 11.6395 12.0114 11.7801Z" fill="white"/>
</svg>
