<svg width="199" height="22" viewBox="0 0 199 22" fill="none" xmlns="http://www.w3.org/2000/svg">
<path d="M1.31836 3C1.31836 1.61929 2.43765 0.5 3.81836 0.5H65.9184C67.2991 0.5 68.4184 1.61929 68.4184 3V19C68.4184 20.3807 67.2991 21.5 65.9184 21.5H3.81835C2.43764 21.5 1.31836 20.3807 1.31836 19V3Z" stroke="#10A1D0"/>
<mask id="path-2-inside-1_4_3407" fill="white">
<path d="M8.60839 15V4.92H14.9784V6.103H9.85439V9.26H14.1384V10.443H9.85439V13.817H14.9784V15H8.60839ZM19.5171 15.203C18.6165 15.203 17.8768 15.007 17.2981 14.615C16.7241 14.2183 16.3718 13.6653 16.2411 12.956L17.5151 12.753C17.6178 13.1637 17.8535 13.4903 18.2221 13.733C18.5908 13.971 19.0481 14.09 19.5941 14.09C20.1121 14.09 20.5181 13.9827 20.8121 13.768C21.1061 13.5533 21.2531 13.2617 21.2531 12.893C21.2531 12.6783 21.2041 12.5057 21.1061 12.375C21.0081 12.2397 20.8051 12.1137 20.4971 11.997C20.1938 11.8803 19.7341 11.7403 19.1181 11.577C18.4508 11.3997 17.9258 11.2153 17.5431 11.024C17.1605 10.8327 16.8875 10.611 16.7241 10.359C16.5608 10.107 16.4791 9.80133 16.4791 9.442C16.4791 8.99867 16.6005 8.61133 16.8431 8.28C17.0858 7.944 17.4241 7.685 17.8581 7.503C18.2968 7.321 18.8055 7.23 19.3841 7.23C19.9581 7.23 20.4715 7.321 20.9241 7.503C21.3768 7.685 21.7408 7.944 22.0161 8.28C22.2961 8.61133 22.4618 8.99867 22.5131 9.442L21.2391 9.673C21.1785 9.267 20.9825 8.94733 20.6511 8.714C20.3245 8.48067 19.9021 8.357 19.3841 8.343C18.8941 8.32433 18.4951 8.41067 18.1871 8.602C17.8838 8.79333 17.7321 9.05233 17.7321 9.379C17.7321 9.561 17.7881 9.71733 17.9001 9.848C18.0168 9.97867 18.2291 10.1023 18.5371 10.219C18.8498 10.3357 19.3025 10.4687 19.8951 10.618C20.5625 10.786 21.0875 10.9703 21.4701 11.171C21.8575 11.367 22.1328 11.6003 22.2961 11.871C22.4595 12.137 22.5411 12.466 22.5411 12.858C22.5411 13.586 22.2728 14.16 21.7361 14.58C21.1995 14.9953 20.4598 15.203 19.5171 15.203ZM28.306 15C27.858 15.0887 27.4146 15.1237 26.976 15.105C26.542 15.091 26.1546 15.0047 25.814 14.846C25.4733 14.6827 25.2143 14.4307 25.037 14.09C24.8876 13.7913 24.806 13.4903 24.792 13.187C24.7826 12.879 24.778 12.5313 24.778 12.144V5.34H26.024V12.088C26.024 12.396 26.0263 12.6597 26.031 12.879C26.0403 13.0983 26.0893 13.2873 26.178 13.446C26.346 13.7447 26.612 13.9197 26.976 13.971C27.3446 14.0223 27.788 14.0083 28.306 13.929V15ZM23.2449 8.469V7.44H28.306V8.469H23.2449ZM30.0648 15V13.628H31.4368V15H30.0648ZM36.137 14.993L36.144 13.873L40.617 9.848C40.9903 9.512 41.24 9.19467 41.366 8.896C41.4966 8.59267 41.562 8.28233 41.562 7.965C41.562 7.57767 41.4733 7.22767 41.296 6.915C41.1186 6.60233 40.876 6.355 40.568 6.173C40.2646 5.991 39.9193 5.9 39.532 5.9C39.1306 5.9 38.7736 5.99567 38.461 6.187C38.1483 6.37367 37.901 6.62333 37.719 6.936C37.5416 7.24867 37.4553 7.58933 37.46 7.958H36.186C36.186 7.32333 36.333 6.76333 36.627 6.278C36.921 5.788 37.32 5.40533 37.824 5.13C38.3326 4.85 38.909 4.71 39.553 4.71C40.1783 4.71 40.7383 4.85467 41.233 5.144C41.7276 5.42867 42.1173 5.81833 42.402 6.313C42.6913 6.803 42.836 7.35833 42.836 7.979C42.836 8.41767 42.78 8.798 42.668 9.12C42.5606 9.442 42.3926 9.74067 42.164 10.016C41.9353 10.2867 41.6483 10.576 41.303 10.884L37.586 14.223L37.425 13.803H42.836V14.993H36.137ZM47.9127 15.21C47.2594 15.21 46.6761 15.063 46.1627 14.769C45.6541 14.4703 45.2504 14.0667 44.9517 13.558C44.6577 13.0447 44.5107 12.4613 44.5107 11.808V8.112C44.5107 7.45867 44.6577 6.87533 44.9517 6.362C45.2504 5.84867 45.6541 5.445 46.1627 5.151C46.6761 4.857 47.2594 4.71 47.9127 4.71C48.5661 4.71 49.1494 4.857 49.6627 5.151C50.1761 5.445 50.5797 5.84867 50.8737 6.362C51.1677 6.87533 51.3147 7.45867 51.3147 8.112V11.808C51.3147 12.4613 51.1677 13.0447 50.8737 13.558C50.5797 14.0667 50.1761 14.4703 49.6627 14.769C49.1494 15.063 48.5661 15.21 47.9127 15.21ZM47.9127 14.013C48.3094 14.013 48.6687 13.9173 48.9907 13.726C49.3127 13.5347 49.5694 13.278 49.7607 12.956C49.9521 12.6293 50.0477 12.27 50.0477 11.878V8.035C50.0477 7.63833 49.9521 7.279 49.7607 6.957C49.5694 6.635 49.3127 6.37833 48.9907 6.187C48.6687 5.99567 48.3094 5.9 47.9127 5.9C47.5207 5.9 47.1614 5.99567 46.8347 6.187C46.5127 6.37833 46.2561 6.635 46.0647 6.957C45.8734 7.279 45.7777 7.63833 45.7777 8.035V11.878C45.7777 12.27 45.8734 12.6293 46.0647 12.956C46.2561 13.278 46.5127 13.5347 46.8347 13.726C47.1614 13.9173 47.5207 14.013 47.9127 14.013ZM55.0314 15V6.299L53.1344 7.447V6.054L55.0314 4.92H56.2984V15H55.0314ZM62.3639 15.21C61.7106 15.21 61.1272 15.063 60.6139 14.769C60.1052 14.4703 59.7016 14.0667 59.4029 13.558C59.1089 13.0447 58.9619 12.4613 58.9619 11.808V8.112C58.9619 7.45867 59.1089 6.87533 59.4029 6.362C59.7016 5.84867 60.1052 5.445 60.6139 5.151C61.1272 4.857 61.7106 4.71 62.3639 4.71C63.0172 4.71 63.6006 4.857 64.1139 5.151C64.6272 5.445 65.0309 5.84867 65.3249 6.362C65.6189 6.87533 65.7659 7.45867 65.7659 8.112V11.808C65.7659 12.4613 65.6189 13.0447 65.3249 13.558C65.0309 14.0667 64.6272 14.4703 64.1139 14.769C63.6006 15.063 63.0172 15.21 62.3639 15.21ZM62.3639 14.013C62.7606 14.013 63.1199 13.9173 63.4419 13.726C63.7639 13.5347 64.0206 13.278 64.2119 12.956C64.4032 12.6293 64.4989 12.27 64.4989 11.878V8.035C64.4989 7.63833 64.4032 7.279 64.2119 6.957C64.0206 6.635 63.7639 6.37833 63.4419 6.187C63.1199 5.99567 62.7606 5.9 62.3639 5.9C61.9719 5.9 61.6126 5.99567 61.2859 6.187C60.9639 6.37833 60.7072 6.635 60.5159 6.957C60.3246 7.279 60.2289 7.63833 60.2289 8.035V11.878C60.2289 12.27 60.3246 12.6293 60.5159 12.956C60.7072 13.278 60.9639 13.5347 61.2859 13.726C61.6126 13.9173 61.9719 14.013 62.3639 14.013Z"/>
</mask>
<path d="M8.60839 15V4.92H14.9784V6.103H9.85439V9.26H14.1384V10.443H9.85439V13.817H14.9784V15H8.60839ZM19.5171 15.203C18.6165 15.203 17.8768 15.007 17.2981 14.615C16.7241 14.2183 16.3718 13.6653 16.2411 12.956L17.5151 12.753C17.6178 13.1637 17.8535 13.4903 18.2221 13.733C18.5908 13.971 19.0481 14.09 19.5941 14.09C20.1121 14.09 20.5181 13.9827 20.8121 13.768C21.1061 13.5533 21.2531 13.2617 21.2531 12.893C21.2531 12.6783 21.2041 12.5057 21.1061 12.375C21.0081 12.2397 20.8051 12.1137 20.4971 11.997C20.1938 11.8803 19.7341 11.7403 19.1181 11.577C18.4508 11.3997 17.9258 11.2153 17.5431 11.024C17.1605 10.8327 16.8875 10.611 16.7241 10.359C16.5608 10.107 16.4791 9.80133 16.4791 9.442C16.4791 8.99867 16.6005 8.61133 16.8431 8.28C17.0858 7.944 17.4241 7.685 17.8581 7.503C18.2968 7.321 18.8055 7.23 19.3841 7.23C19.9581 7.23 20.4715 7.321 20.9241 7.503C21.3768 7.685 21.7408 7.944 22.0161 8.28C22.2961 8.61133 22.4618 8.99867 22.5131 9.442L21.2391 9.673C21.1785 9.267 20.9825 8.94733 20.6511 8.714C20.3245 8.48067 19.9021 8.357 19.3841 8.343C18.8941 8.32433 18.4951 8.41067 18.1871 8.602C17.8838 8.79333 17.7321 9.05233 17.7321 9.379C17.7321 9.561 17.7881 9.71733 17.9001 9.848C18.0168 9.97867 18.2291 10.1023 18.5371 10.219C18.8498 10.3357 19.3025 10.4687 19.8951 10.618C20.5625 10.786 21.0875 10.9703 21.4701 11.171C21.8575 11.367 22.1328 11.6003 22.2961 11.871C22.4595 12.137 22.5411 12.466 22.5411 12.858C22.5411 13.586 22.2728 14.16 21.7361 14.58C21.1995 14.9953 20.4598 15.203 19.5171 15.203ZM28.306 15C27.858 15.0887 27.4146 15.1237 26.976 15.105C26.542 15.091 26.1546 15.0047 25.814 14.846C25.4733 14.6827 25.2143 14.4307 25.037 14.09C24.8876 13.7913 24.806 13.4903 24.792 13.187C24.7826 12.879 24.778 12.5313 24.778 12.144V5.34H26.024V12.088C26.024 12.396 26.0263 12.6597 26.031 12.879C26.0403 13.0983 26.0893 13.2873 26.178 13.446C26.346 13.7447 26.612 13.9197 26.976 13.971C27.3446 14.0223 27.788 14.0083 28.306 13.929V15ZM23.2449 8.469V7.44H28.306V8.469H23.2449ZM30.0648 15V13.628H31.4368V15H30.0648ZM36.137 14.993L36.144 13.873L40.617 9.848C40.9903 9.512 41.24 9.19467 41.366 8.896C41.4966 8.59267 41.562 8.28233 41.562 7.965C41.562 7.57767 41.4733 7.22767 41.296 6.915C41.1186 6.60233 40.876 6.355 40.568 6.173C40.2646 5.991 39.9193 5.9 39.532 5.9C39.1306 5.9 38.7736 5.99567 38.461 6.187C38.1483 6.37367 37.901 6.62333 37.719 6.936C37.5416 7.24867 37.4553 7.58933 37.46 7.958H36.186C36.186 7.32333 36.333 6.76333 36.627 6.278C36.921 5.788 37.32 5.40533 37.824 5.13C38.3326 4.85 38.909 4.71 39.553 4.71C40.1783 4.71 40.7383 4.85467 41.233 5.144C41.7276 5.42867 42.1173 5.81833 42.402 6.313C42.6913 6.803 42.836 7.35833 42.836 7.979C42.836 8.41767 42.78 8.798 42.668 9.12C42.5606 9.442 42.3926 9.74067 42.164 10.016C41.9353 10.2867 41.6483 10.576 41.303 10.884L37.586 14.223L37.425 13.803H42.836V14.993H36.137ZM47.9127 15.21C47.2594 15.21 46.6761 15.063 46.1627 14.769C45.6541 14.4703 45.2504 14.0667 44.9517 13.558C44.6577 13.0447 44.5107 12.4613 44.5107 11.808V8.112C44.5107 7.45867 44.6577 6.87533 44.9517 6.362C45.2504 5.84867 45.6541 5.445 46.1627 5.151C46.6761 4.857 47.2594 4.71 47.9127 4.71C48.5661 4.71 49.1494 4.857 49.6627 5.151C50.1761 5.445 50.5797 5.84867 50.8737 6.362C51.1677 6.87533 51.3147 7.45867 51.3147 8.112V11.808C51.3147 12.4613 51.1677 13.0447 50.8737 13.558C50.5797 14.0667 50.1761 14.4703 49.6627 14.769C49.1494 15.063 48.5661 15.21 47.9127 15.21ZM47.9127 14.013C48.3094 14.013 48.6687 13.9173 48.9907 13.726C49.3127 13.5347 49.5694 13.278 49.7607 12.956C49.9521 12.6293 50.0477 12.27 50.0477 11.878V8.035C50.0477 7.63833 49.9521 7.279 49.7607 6.957C49.5694 6.635 49.3127 6.37833 48.9907 6.187C48.6687 5.99567 48.3094 5.9 47.9127 5.9C47.5207 5.9 47.1614 5.99567 46.8347 6.187C46.5127 6.37833 46.2561 6.635 46.0647 6.957C45.8734 7.279 45.7777 7.63833 45.7777 8.035V11.878C45.7777 12.27 45.8734 12.6293 46.0647 12.956C46.2561 13.278 46.5127 13.5347 46.8347 13.726C47.1614 13.9173 47.5207 14.013 47.9127 14.013ZM55.0314 15V6.299L53.1344 7.447V6.054L55.0314 4.92H56.2984V15H55.0314ZM62.3639 15.21C61.7106 15.21 61.1272 15.063 60.6139 14.769C60.1052 14.4703 59.7016 14.0667 59.4029 13.558C59.1089 13.0447 58.9619 12.4613 58.9619 11.808V8.112C58.9619 7.45867 59.1089 6.87533 59.4029 6.362C59.7016 5.84867 60.1052 5.445 60.6139 5.151C61.1272 4.857 61.7106 4.71 62.3639 4.71C63.0172 4.71 63.6006 4.857 64.1139 5.151C64.6272 5.445 65.0309 5.84867 65.3249 6.362C65.6189 6.87533 65.7659 7.45867 65.7659 8.112V11.808C65.7659 12.4613 65.6189 13.0447 65.3249 13.558C65.0309 14.0667 64.6272 14.4703 64.1139 14.769C63.6006 15.063 63.0172 15.21 62.3639 15.21ZM62.3639 14.013C62.7606 14.013 63.1199 13.9173 63.4419 13.726C63.7639 13.5347 64.0206 13.278 64.2119 12.956C64.4032 12.6293 64.4989 12.27 64.4989 11.878V8.035C64.4989 7.63833 64.4032 7.279 64.2119 6.957C64.0206 6.635 63.7639 6.37833 63.4419 6.187C63.1199 5.99567 62.7606 5.9 62.3639 5.9C61.9719 5.9 61.6126 5.99567 61.2859 6.187C60.9639 6.37833 60.7072 6.635 60.5159 6.957C60.3246 7.279 60.2289 7.63833 60.2289 8.035V11.878C60.2289 12.27 60.3246 12.6293 60.5159 12.956C60.7072 13.278 60.9639 13.5347 61.2859 13.726C61.6126 13.9173 61.9719 14.013 62.3639 14.013Z" fill="#171E5A" fill-opacity="0.13"/>
<path d="M8.60839 15H7.60839V16H8.60839V15ZM8.60839 4.92V3.92H7.60839V4.92H8.60839ZM14.9784 4.92H15.9784V3.92H14.9784V4.92ZM14.9784 6.103V7.103H15.9784V6.103H14.9784ZM9.85439 6.103V5.103H8.85439V6.103H9.85439ZM9.85439 9.26H8.85439V10.26H9.85439V9.26ZM14.1384 9.26H15.1384V8.26H14.1384V9.26ZM14.1384 10.443V11.443H15.1384V10.443H14.1384ZM9.85439 10.443V9.443H8.85439V10.443H9.85439ZM9.85439 13.817H8.85439V14.817H9.85439V13.817ZM14.9784 13.817H15.9784V12.817H14.9784V13.817ZM14.9784 15V16H15.9784V15H14.9784ZM9.60839 15V4.92H7.60839V15H9.60839ZM8.60839 5.92H14.9784V3.92H8.60839V5.92ZM13.9784 4.92V6.103H15.9784V4.92H13.9784ZM14.9784 5.103H9.85439V7.103H14.9784V5.103ZM8.85439 6.103V9.26H10.8544V6.103H8.85439ZM9.85439 10.26H14.1384V8.26H9.85439V10.26ZM13.1384 9.26V10.443H15.1384V9.26H13.1384ZM14.1384 9.443H9.85439V11.443H14.1384V9.443ZM8.85439 10.443V13.817H10.8544V10.443H8.85439ZM9.85439 14.817H14.9784V12.817H9.85439V14.817ZM13.9784 13.817V15H15.9784V13.817H13.9784ZM14.9784 14H8.60839V16H14.9784V14ZM17.2981 14.615L16.7296 15.4377L16.7373 15.4429L17.2981 14.615ZM16.2411 12.956L16.0838 11.9685L15.0721 12.1297L15.2577 13.1372L16.2411 12.956ZM17.5151 12.753L18.4853 12.5105L18.263 11.6212L17.3578 11.7655L17.5151 12.753ZM18.2221 13.733L17.6723 14.5683L17.6798 14.5731L18.2221 13.733ZM21.1061 12.375L20.2962 12.9615L20.3011 12.9683L20.3061 12.975L21.1061 12.375ZM20.4971 11.997L20.1381 12.9304L20.1429 12.9322L20.4971 11.997ZM19.1181 11.577L18.8613 12.5435L18.8618 12.5436L19.1181 11.577ZM17.5431 11.024L17.0959 11.9184L17.5431 11.024ZM16.7241 10.359L17.5633 9.8151V9.8151L16.7241 10.359ZM16.8431 8.28L17.6499 8.87088L17.6538 8.86549L16.8431 8.28ZM17.8581 7.503L17.4749 6.57934L17.4714 6.5808L17.8581 7.503ZM20.9241 7.503L21.2972 6.57518L21.2972 6.57518L20.9241 7.503ZM22.0161 8.28L21.2426 8.91382L21.2474 8.91968L21.2523 8.92546L22.0161 8.28ZM22.5131 9.442L22.6915 10.426L23.6144 10.2586L23.5065 9.32698L22.5131 9.442ZM21.2391 9.673L20.2501 9.82078L20.4025 10.841L21.4175 10.657L21.2391 9.673ZM20.6511 8.714L20.0699 9.52775L20.0753 9.5316L20.6511 8.714ZM19.3841 8.343L19.3461 9.34234L19.3571 9.34264L19.3841 8.343ZM18.1871 8.602L17.6594 7.75254L17.6536 7.7562L18.1871 8.602ZM17.9001 9.848L17.1409 10.4988L17.1474 10.5065L17.1542 10.514L17.9001 9.848ZM18.5371 10.219L18.1829 11.1542L18.1875 11.1559L18.5371 10.219ZM19.8951 10.618L19.6508 11.5877L19.651 11.5877L19.8951 10.618ZM21.4701 11.171L21.0057 12.0566L21.0121 12.06L21.0186 12.0633L21.4701 11.171ZM22.2961 11.871L21.4399 12.3877L21.444 12.3943L22.2961 11.871ZM21.7361 14.58L22.3482 15.3708L22.3524 15.3675L21.7361 14.58ZM19.5171 14.203C18.7591 14.203 18.2303 14.0386 17.859 13.7871L16.7373 15.4429C17.5233 15.9754 18.4738 16.203 19.5171 16.203V14.203ZM17.8666 13.7923C17.5185 13.5517 17.3091 13.2337 17.2246 12.7748L15.2577 13.1372C15.4345 14.097 15.9298 14.8849 16.7296 15.4377L17.8666 13.7923ZM16.3985 13.9435L17.6725 13.7405L17.3578 11.7655L16.0838 11.9685L16.3985 13.9435ZM16.545 12.9955C16.7113 13.6607 17.104 14.1942 17.6723 14.5683L18.7719 12.8977C18.6029 12.7865 18.5243 12.6666 18.4853 12.5105L16.545 12.9955ZM17.6798 14.5731C18.2455 14.9384 18.9027 15.09 19.5941 15.09V13.09C19.1935 13.09 18.9361 13.0036 18.7645 12.8929L17.6798 14.5731ZM19.5941 15.09C20.2374 15.09 20.8778 14.9582 21.4018 14.5756L20.2224 12.9604C20.1584 13.0071 19.9868 13.09 19.5941 13.09V15.09ZM21.4018 14.5756C21.9575 14.1699 22.2531 13.5761 22.2531 12.893H20.2531C20.2531 12.9186 20.2506 12.9326 20.2495 12.9378C20.2484 12.9425 20.2481 12.9417 20.2499 12.9382C20.2517 12.9346 20.2529 12.9336 20.251 12.9358C20.2488 12.9383 20.2407 12.947 20.2224 12.9604L21.4018 14.5756ZM22.2531 12.893C22.2531 12.5298 22.1695 12.1262 21.9061 11.775L20.3061 12.975C20.2746 12.9329 20.26 12.8955 20.2544 12.8755C20.2493 12.8577 20.2531 12.8605 20.2531 12.893H22.2531ZM21.9161 11.7885C21.6369 11.403 21.1946 11.1918 20.8513 11.0618L20.1429 12.9322C20.2574 12.9755 20.3225 13.0097 20.353 13.0286C20.3671 13.0374 20.3668 13.0386 20.3573 13.0304C20.3479 13.0222 20.3241 13.0001 20.2962 12.9615L21.9161 11.7885ZM20.8561 11.0637C20.5009 10.927 19.9989 10.776 19.3744 10.6104L18.8618 12.5436C19.4693 12.7047 19.8867 12.8336 20.1381 12.9303L20.8561 11.0637ZM19.3749 10.6105C18.7386 10.4414 18.2867 10.2778 17.9903 10.1296L17.0959 11.9184C17.5648 12.1529 18.163 12.3579 18.8613 12.5435L19.3749 10.6105ZM17.9903 10.1296C17.7032 9.98599 17.5969 9.86694 17.5633 9.8151L15.885 10.9029C16.178 11.3551 16.6177 11.6793 17.0959 11.9184L17.9903 10.1296ZM17.5633 9.8151C17.524 9.75457 17.4791 9.64674 17.4791 9.442H15.4791C15.4791 9.95593 15.5975 10.4594 15.885 10.9029L17.5633 9.8151ZM17.4791 9.442C17.4791 9.19328 17.5429 9.0169 17.6499 8.87087L16.0364 7.68913C15.658 8.20576 15.4791 8.80405 15.4791 9.442H17.4791ZM17.6538 8.86549C17.7748 8.69796 17.9569 8.54593 18.2448 8.42519L17.4714 6.5808C16.8913 6.82407 16.3968 7.19004 16.0324 7.69451L17.6538 8.86549ZM18.2413 8.42666C18.5351 8.30477 18.909 8.23 19.3841 8.23V6.23C18.7019 6.23 18.0585 6.33723 17.4749 6.57934L18.2413 8.42666ZM19.3841 8.23C19.8525 8.23 20.236 8.30412 20.5511 8.43081L21.2972 6.57518C20.7069 6.33788 20.0638 6.23 19.3841 6.23V8.23ZM20.5511 8.43081C20.8672 8.55792 21.0865 8.72331 21.2426 8.91382L22.7896 7.64618C22.395 7.16469 21.8864 6.81208 21.2972 6.57518L20.5511 8.43081ZM21.2523 8.92546C21.4014 9.1019 21.4904 9.30327 21.5198 9.55702L23.5065 9.32698C23.4332 8.69406 23.1908 8.12076 22.7799 7.63454L21.2523 8.92546ZM22.3347 8.45804L21.0607 8.68904L21.4175 10.657L22.6915 10.426L22.3347 8.45804ZM22.2281 9.52522C22.1277 8.85281 21.785 8.28943 21.2269 7.89639L20.0753 9.5316C20.1799 9.60524 20.2292 9.68119 20.2501 9.82078L22.2281 9.52522ZM21.2324 7.90027C20.7024 7.52172 20.0708 7.36119 19.4111 7.34336L19.3571 9.34264C19.7334 9.35281 19.9465 9.43961 20.0699 9.52773L21.2324 7.90027ZM19.4222 7.34372C18.8015 7.32008 18.187 7.42481 17.6594 7.75256L18.7148 9.45144C18.8032 9.39653 18.9868 9.32859 19.3461 9.34227L19.4222 7.34372ZM17.6536 7.7562C17.0938 8.10931 16.7321 8.67076 16.7321 9.379H18.7321C18.7321 9.37521 18.7325 9.38247 18.7286 9.39738C18.7246 9.41278 18.7179 9.42957 18.7088 9.44507C18.6999 9.46026 18.6924 9.46803 18.6915 9.46893C18.6911 9.46937 18.6989 9.46148 18.7206 9.4478L17.6536 7.7562ZM16.7321 9.379C16.7321 9.7848 16.8641 10.1759 17.1409 10.4988L18.6594 9.19721C18.6798 9.221 18.7009 9.25478 18.7155 9.29552C18.7299 9.33547 18.7321 9.36607 18.7321 9.379H16.7321ZM17.1542 10.514C17.4357 10.8293 17.8349 11.0223 18.1829 11.1542L18.8913 9.28384C18.7727 9.23891 18.6958 9.20119 18.6502 9.17463C18.6012 9.1461 18.6125 9.14443 18.6461 9.18198L17.1542 10.514ZM18.1875 11.1559C18.552 11.2919 19.0465 11.4354 19.6508 11.5877L20.1395 9.64831C19.5584 9.50189 19.1476 9.37945 18.8867 9.2821L18.1875 11.1559ZM19.651 11.5877C20.2812 11.7464 20.7215 11.9076 21.0057 12.0566L21.9345 10.2854C21.4534 10.0331 20.8437 9.8256 20.1393 9.64826L19.651 11.5877ZM21.0186 12.0633C21.2987 12.205 21.4034 12.3271 21.4399 12.3877L23.1523 11.3543C22.8622 10.8736 22.4162 10.529 21.9216 10.2787L21.0186 12.0633ZM21.444 12.3943C21.4887 12.4672 21.5411 12.6038 21.5411 12.858H23.5411C23.5411 12.3282 23.4302 11.8068 23.1483 11.3477L21.444 12.3943ZM21.5411 12.858C21.5411 13.3027 21.3958 13.5765 21.1198 13.7925L22.3524 15.3675C23.1498 14.7435 23.5411 13.8693 23.5411 12.858H21.5411ZM21.1241 13.7892C20.8195 14.0249 20.3229 14.203 19.5171 14.203V16.203C20.5967 16.203 21.5794 15.9658 22.3482 15.3708L21.1241 13.7892ZM28.306 15L28.5001 15.981L29.306 15.8215V15H28.306ZM26.976 15.105L27.0185 14.1059L27.0082 14.1055L26.976 15.105ZM25.8139 14.846L25.3816 15.7478L25.3917 15.7525L25.8139 14.846ZM25.0369 14.09L24.1425 14.5372L24.1462 14.5445L24.1499 14.5517L25.0369 14.09ZM24.792 13.187L23.7924 13.2173L23.7926 13.2252L23.793 13.2331L24.792 13.187ZM24.778 5.34V4.34H23.778V5.34H24.778ZM26.024 5.34H27.024V4.34H26.024V5.34ZM26.031 12.879L25.0312 12.9003L25.0314 12.9109L25.0319 12.9215L26.031 12.879ZM26.1779 13.446L25.305 13.9338L25.3064 13.9363L26.1779 13.446ZM26.976 13.971L26.8363 14.9612L26.838 14.9614L26.976 13.971ZM28.306 13.929H29.306V12.7642L28.1546 12.9405L28.306 13.929ZM23.245 8.469H22.245V9.469H23.245V8.469ZM23.245 7.44V6.44H22.245V7.44H23.245ZM28.306 7.44H29.306V6.44H28.306V7.44ZM28.306 8.469V9.469H29.306V8.469H28.306ZM28.1118 14.019C27.7386 14.0929 27.3747 14.1211 27.0185 14.1059L26.9334 16.1041C27.4546 16.1263 27.9773 16.0844 28.5001 15.981L28.1118 14.019ZM27.0082 14.1055C26.6883 14.0952 26.4369 14.033 26.2362 13.9395L25.3917 15.7525C25.8723 15.9763 26.3956 16.0868 26.9437 16.1045L27.0082 14.1055ZM26.2463 13.9443C26.1043 13.8762 26.0031 13.7804 25.924 13.6283L24.1499 14.5517C24.4254 15.081 24.8423 15.4891 25.3816 15.7477L26.2463 13.9443ZM25.9314 13.6428C25.8382 13.4565 25.7978 13.2913 25.7909 13.1409L23.793 13.2331C23.8141 13.6893 23.937 14.1262 24.1425 14.5372L25.9314 13.6428ZM25.7915 13.1567C25.7825 12.861 25.778 12.5237 25.778 12.144H23.778C23.778 12.539 23.7827 12.897 23.7924 13.2173L25.7915 13.1567ZM25.778 12.144V5.34H23.778V12.144H25.778ZM24.778 6.34H26.024V4.34H24.778V6.34ZM25.024 5.34V12.088H27.024V5.34H25.024ZM25.024 12.088C25.024 12.4005 25.0263 12.6717 25.0312 12.9003L27.0307 12.8577C27.0263 12.6477 27.024 12.3915 27.024 12.088H25.024ZM25.0319 12.9215C25.0465 13.265 25.1258 13.6131 25.305 13.9338L27.0509 12.9582C27.0509 12.9581 27.0507 12.9578 27.0503 12.957C27.0499 12.9562 27.0494 12.955 27.0486 12.9532C27.0472 12.9496 27.0451 12.9435 27.0427 12.9343C27.0379 12.9158 27.0321 12.8843 27.03 12.8365L25.0319 12.9215ZM25.3064 13.9363C25.6396 14.5286 26.1898 14.87 26.8363 14.9612L27.1156 12.9808C27.0857 12.9766 27.0679 12.9713 27.0594 12.9682C27.0513 12.9653 27.0502 12.9639 27.0531 12.9658C27.0561 12.9678 27.0586 12.9702 27.0596 12.9713C27.0604 12.9721 27.0565 12.9681 27.0495 12.9557L25.3064 13.9363ZM26.838 14.9614C27.333 15.0304 27.8793 15.006 28.4573 14.9175L28.1546 12.9405C27.6966 13.0107 27.3563 13.0143 27.1139 12.9806L26.838 14.9614ZM27.306 13.929V15H29.306V13.929H27.306ZM24.2449 8.469V7.44H22.245V8.469H24.2449ZM23.245 8.44H28.306V6.44H23.245V8.44ZM27.306 7.44V8.469H29.306V7.44H27.306ZM28.306 7.469H23.245V9.469H28.306V7.469ZM30.0648 15H29.0648V16H30.0648V15ZM30.0648 13.628V12.628H29.0648V13.628H30.0648ZM31.4368 13.628H32.4368V12.628H31.4368V13.628ZM31.4368 15V16H32.4368V15H31.4368ZM31.0648 15V13.628H29.0648V15H31.0648ZM30.0648 14.628H31.4368V12.628H30.0648V14.628ZM30.4368 13.628V15H32.4368V13.628H30.4368ZM31.4368 14H30.0648V16H31.4368V14ZM36.137 14.993L35.137 14.9867L35.1307 15.993H36.137V14.993ZM36.144 13.873L35.4751 13.1296L35.1468 13.4251L35.144 13.8667L36.144 13.873ZM40.617 9.848L41.2859 10.5914L41.2859 10.5913L40.617 9.848ZM41.366 8.896L40.4475 8.50036L40.4446 8.5073L41.366 8.896ZM41.296 6.915L42.1658 6.42166L41.296 6.915ZM40.568 6.173L40.0535 7.03051L40.0592 7.03393L40.568 6.173ZM38.461 6.187L38.9736 7.04567L38.9829 7.03997L38.461 6.187ZM37.719 6.936L36.8547 6.4329L36.8491 6.44266L37.719 6.936ZM37.46 7.958V8.958H38.4727L38.4599 7.94534L37.46 7.958ZM36.186 7.958H35.186V8.958H36.186V7.958ZM36.627 6.278L37.4823 6.79612L37.4845 6.7925L36.627 6.278ZM37.824 5.13L38.3034 6.00759L38.3062 6.00605L37.824 5.13ZM41.233 5.144L40.7281 6.00721L40.7342 6.01073L41.233 5.144ZM42.402 6.313L41.5352 6.81181L41.5409 6.82145L42.402 6.313ZM42.668 9.12L41.7234 8.79145L41.7193 8.80377L42.668 9.12ZM42.164 10.016L42.9279 10.6614L42.9333 10.6549L42.164 10.016ZM41.303 10.884L40.6374 10.1377L40.6347 10.1401L41.303 10.884ZM37.586 14.223L36.6522 14.5809L37.1726 15.9385L38.2542 14.9669L37.586 14.223ZM37.425 13.803V12.803H35.9707L36.4912 14.1609L37.425 13.803ZM42.836 13.803H43.836V12.803H42.836V13.803ZM42.836 14.993V15.993H43.836V14.993H42.836ZM37.137 14.9992L37.144 13.8792L35.144 13.8667L35.137 14.9867L37.137 14.9992ZM36.8129 14.6164L41.2859 10.5914L39.9481 9.10465L35.4751 13.1296L36.8129 14.6164ZM41.2859 10.5913C41.7144 10.2056 42.0815 9.77257 42.2873 9.2847L40.4446 8.5073C40.3984 8.61676 40.2662 8.81835 39.948 9.1047L41.2859 10.5913ZM42.2844 9.29162C42.4666 8.86854 42.562 8.42394 42.562 7.965H40.562C40.562 8.14073 40.5267 8.31679 40.4476 8.50038L42.2844 9.29162ZM42.562 7.965C42.562 7.41857 42.435 6.89634 42.1658 6.42166L40.4261 7.40834C40.5116 7.55899 40.562 7.73677 40.562 7.965H42.562ZM42.1658 6.42166C41.9027 5.95778 41.5359 5.5834 41.0767 5.31207L40.0592 7.03393C40.2161 7.1266 40.3346 7.24688 40.4261 7.40834L42.1658 6.42166ZM41.0825 5.31551C40.6092 5.03152 40.0828 4.9 39.532 4.9V6.9C39.7558 6.9 39.9201 6.95047 40.0535 7.03049L41.0825 5.31551ZM39.532 4.9C38.9645 4.9 38.4235 5.03754 37.939 5.33403L38.9829 7.03997C39.1238 6.9538 39.2968 6.9 39.532 6.9V4.9ZM37.9484 5.32838C37.4913 5.60127 37.1225 5.97288 36.8547 6.43293L38.5832 7.43907C38.6794 7.27379 38.8054 7.14606 38.9736 7.04562L37.9484 5.32838ZM36.8491 6.44266C36.5821 6.91359 36.4532 7.42955 36.4601 7.97066L38.4599 7.94534C38.4574 7.74911 38.5012 7.58375 38.5888 7.42934L36.8491 6.44266ZM37.46 6.958H36.186V8.958H37.46V6.958ZM37.186 7.958C37.186 7.48379 37.2938 7.10723 37.4823 6.79612L35.7717 5.75988C35.3721 6.41944 35.186 7.16288 35.186 7.958H37.186ZM37.4845 6.7925C37.6865 6.45579 37.9546 6.19811 38.3034 6.00758L37.3446 4.25241C36.6853 4.61256 36.1555 5.1202 35.7695 5.7635L37.4845 6.7925ZM38.3062 6.00605C38.6515 5.81596 39.0588 5.71 39.553 5.71V3.71C38.7591 3.71 38.0138 3.88404 37.3418 4.25395L38.3062 6.00605ZM39.553 5.71C40.0175 5.71 40.4004 5.81551 40.7281 6.00719L41.7379 4.28081C41.0762 3.89382 40.3391 3.71 39.553 3.71V5.71ZM40.7342 6.01073C41.0759 6.20736 41.3386 6.47008 41.5353 6.81178L43.2687 5.81422C42.896 5.16658 42.3794 4.64997 41.7318 4.27727L40.7342 6.01073ZM41.5409 6.82145C41.7311 7.14364 41.836 7.52045 41.836 7.979H43.836C43.836 7.19621 43.6515 6.46236 43.2631 5.80455L41.5409 6.82145ZM41.836 7.979C41.836 8.33626 41.7899 8.60046 41.7235 8.79148L43.6125 9.44852C43.77 8.99554 43.836 8.49907 43.836 7.979H41.836ZM41.7193 8.80377C41.6533 9.00169 41.5484 9.19199 41.3947 9.3771L42.9333 10.6549C43.2369 10.2893 43.468 9.88231 43.6167 9.43623L41.7193 8.80377ZM41.4001 9.37065C41.2093 9.59647 40.9576 9.85211 40.6374 10.1377L41.9686 11.6303C42.3391 11.2999 42.6613 10.9769 42.9279 10.6614L41.4001 9.37065ZM40.6347 10.1401L36.9177 13.4791L38.2542 14.9669L41.9712 11.6279L40.6347 10.1401ZM38.5197 13.8651L38.3587 13.4451L36.4912 14.1609L36.6522 14.5809L38.5197 13.8651ZM37.425 14.803H42.836V12.803H37.425V14.803ZM41.836 13.803V14.993H43.836V13.803H41.836ZM42.836 13.993H36.137V15.993H42.836V13.993ZM46.1627 14.769L45.6564 15.6314L45.6657 15.6368L46.1627 14.769ZM44.9517 13.558L44.0839 14.055L44.0894 14.0643L44.9517 13.558ZM44.9517 6.362L44.0874 5.85909L44.084 5.86501L44.9517 6.362ZM46.1627 5.151L45.6657 4.28324L45.6623 4.28521L46.1627 5.151ZM50.8737 6.362L50.006 6.85899V6.85899L50.8737 6.362ZM50.8737 13.558L51.7395 14.0584L51.7415 14.055L50.8737 13.558ZM49.6627 14.769L50.1597 15.6368L50.1656 15.6333L49.6627 14.769ZM48.9907 13.726L48.4799 12.8663L48.9907 13.726ZM49.7607 12.956L50.6204 13.4668L50.6236 13.4614L49.7607 12.956ZM46.8347 6.187L46.3293 5.3241L46.3239 5.32732L46.8347 6.187ZM46.0647 12.956L45.2018 13.4614L45.205 13.4668L46.0647 12.956ZM46.8347 13.726L46.3239 14.5857L46.3293 14.5889L46.8347 13.726ZM47.9127 14.21C47.4151 14.21 47.0063 14.0998 46.6597 13.9012L45.6657 15.6368C46.3458 16.0262 47.1037 16.21 47.9127 16.21V14.21ZM46.6691 13.9067C46.3075 13.6944 46.0264 13.4132 45.8141 13.0517L44.0894 14.0643C44.4744 14.7201 45.0006 15.2463 45.6564 15.6313L46.6691 13.9067ZM45.8195 13.061C45.621 12.7144 45.5107 12.3056 45.5107 11.808H43.5107C43.5107 12.617 43.6945 13.3749 44.084 14.055L45.8195 13.061ZM45.5107 11.808V8.112H43.5107V11.808H45.5107ZM45.5107 8.112C45.5107 7.61436 45.621 7.20561 45.8195 6.85899L44.084 5.86501C43.6945 6.54506 43.5107 7.30297 43.5107 8.112H45.5107ZM45.8161 6.86489C46.0281 6.50045 46.307 6.22261 46.6631 6.01679L45.6623 4.28521C45.0011 4.66739 44.4727 5.19688 44.0874 5.85911L45.8161 6.86489ZM46.6597 6.01876C47.0063 5.82024 47.4151 5.71 47.9127 5.71V3.71C47.1037 3.71 46.3458 3.89376 45.6657 4.28324L46.6597 6.01876ZM47.9127 5.71C48.4104 5.71 48.8191 5.82024 49.1657 6.01876L50.1597 4.28324C49.4797 3.89376 48.7218 3.71 47.9127 3.71V5.71ZM49.1657 6.01876C49.5247 6.22435 49.8004 6.50002 50.006 6.85899L51.7415 5.86501C51.3591 5.19731 50.8274 4.66565 50.1597 4.28324L49.1657 6.01876ZM50.006 6.85899C50.2045 7.20561 50.3147 7.61436 50.3147 8.112H52.3147C52.3147 7.30297 52.131 6.54506 51.7415 5.86501L50.006 6.85899ZM50.3147 8.112V11.808H52.3147V8.112H50.3147ZM50.3147 11.808C50.3147 12.3056 50.2045 12.7144 50.006 13.061L51.7415 14.055C52.131 13.3749 52.3147 12.617 52.3147 11.808H50.3147ZM50.0079 13.0576C49.8021 13.4137 49.5243 13.6926 49.1598 13.9047L50.1656 15.6333C50.8278 15.2481 51.3573 14.7196 51.7395 14.0584L50.0079 13.0576ZM49.1657 13.9012C48.8191 14.0998 48.4104 14.21 47.9127 14.21V16.21C48.7218 16.21 49.4797 16.0262 50.1597 15.6368L49.1657 13.9012ZM47.9127 15.013C48.4781 15.013 49.0158 14.8743 49.5016 14.5857L48.4799 12.8663C48.3217 12.9603 48.1406 13.013 47.9127 13.013V15.013ZM49.5016 14.5857C49.9672 14.309 50.3438 13.9324 50.6204 13.4668L48.901 12.4452C48.795 12.6236 48.6583 12.7603 48.4799 12.8663L49.5016 14.5857ZM50.6236 13.4614C50.908 12.9759 51.0477 12.4411 51.0477 11.878H49.0477C49.0477 12.0989 48.9961 12.2828 48.8979 12.4506L50.6236 13.4614ZM51.0477 11.878V8.035H49.0477V11.878H51.0477ZM51.0477 8.035C51.0477 7.46958 50.9091 6.93196 50.6204 6.44617L48.901 7.46783C48.9951 7.62603 49.0477 7.80708 49.0477 8.035H51.0477ZM50.6204 6.44617C50.3438 5.98058 49.9672 5.60397 49.5016 5.32732L48.4799 7.04668C48.6583 7.15269 48.795 7.28942 48.901 7.46783L50.6204 6.44617ZM49.5016 5.32732C49.0158 5.03866 48.4781 4.9 47.9127 4.9V6.9C48.1406 6.9 48.3217 6.95268 48.4799 7.04668L49.5016 5.32732ZM47.9127 4.9C47.3497 4.9 46.8149 5.03972 46.3293 5.32412L47.3401 7.04988C47.5079 6.95161 47.6918 6.9 47.9127 6.9V4.9ZM46.3239 5.32732C45.8583 5.60397 45.4817 5.98058 45.205 6.44617L46.9244 7.46783C47.0304 7.28942 47.1672 7.15269 47.3456 7.04668L46.3239 5.32732ZM45.205 6.44617C44.9164 6.93196 44.7777 7.46958 44.7777 8.035H46.7777C46.7777 7.80708 46.8304 7.62603 46.9244 7.46783L45.205 6.44617ZM44.7777 8.035V11.878H46.7777V8.035H44.7777ZM44.7777 11.878C44.7777 12.4411 44.9175 12.9759 45.2018 13.4614L46.9276 12.4506C46.8293 12.2828 46.7777 12.0989 46.7777 11.878H44.7777ZM45.205 13.4668C45.4817 13.9324 45.8583 14.309 46.3239 14.5857L47.3456 12.8663C47.1672 12.7603 47.0304 12.6236 46.9244 12.4452L45.205 13.4668ZM46.3293 14.5889C46.8149 14.8733 47.3497 15.013 47.9127 15.013V13.013C47.6918 13.013 47.5079 12.9614 47.3401 12.8631L46.3293 14.5889ZM55.0314 15H54.0314V16H55.0314V15ZM55.0314 6.299H56.0314V4.52498L54.5137 5.44346L55.0314 6.299ZM53.1344 7.447H52.1344V9.22102L53.6521 8.30254L53.1344 7.447ZM53.1344 6.054L52.6213 5.19567L52.1344 5.48673V6.054H53.1344ZM55.0314 4.92V3.92H54.7553L54.5183 4.06167L55.0314 4.92ZM56.2984 4.92H57.2984V3.92H56.2984V4.92ZM56.2984 15V16H57.2984V15H56.2984ZM56.0314 15V6.299H54.0314V15H56.0314ZM54.5137 5.44346L52.6167 6.59146L53.6521 8.30254L55.5491 7.15454L54.5137 5.44346ZM54.1344 7.447V6.054H52.1344V7.447H54.1344ZM53.6475 6.91233L55.5445 5.77833L54.5183 4.06167L52.6213 5.19567L53.6475 6.91233ZM55.0314 5.92H56.2984V3.92H55.0314V5.92ZM55.2984 4.92V15H57.2984V4.92H55.2984ZM56.2984 14H55.0314V16H56.2984V14ZM60.6139 14.769L60.1075 15.6314L60.1169 15.6368L60.6139 14.769ZM59.4029 13.558L58.5351 14.055L58.5406 14.0643L59.4029 13.558ZM59.4029 6.362L58.5385 5.85909L58.5351 5.86501L59.4029 6.362ZM60.6139 5.151L60.1169 4.28324L60.1135 4.28521L60.6139 5.151ZM65.3249 6.362L64.4571 6.85899V6.85899L65.3249 6.362ZM65.3249 13.558L66.1907 14.0584L66.1927 14.055L65.3249 13.558ZM64.1139 14.769L64.6109 15.6368L64.6168 15.6333L64.1139 14.769ZM63.4419 13.726L62.9311 12.8663L63.4419 13.726ZM64.2119 12.956L65.0716 13.4668L65.0748 13.4614L64.2119 12.956ZM61.2859 6.187L60.7805 5.3241L60.7751 5.32732L61.2859 6.187ZM60.5159 12.956L59.653 13.4614L59.6562 13.4668L60.5159 12.956ZM61.2859 13.726L60.7751 14.5857L60.7805 14.5889L61.2859 13.726ZM62.3639 14.21C61.8663 14.21 61.4575 14.0998 61.1109 13.9012L60.1169 15.6368C60.797 16.0262 61.5549 16.21 62.3639 16.21V14.21ZM61.1202 13.9067C60.7587 13.6944 60.4775 13.4132 60.2652 13.0517L58.5406 14.0643C58.9256 14.7201 59.4518 15.2463 60.1076 15.6313L61.1202 13.9067ZM60.2707 13.061C60.0721 12.7144 59.9619 12.3056 59.9619 11.808H57.9619C57.9619 12.617 58.1457 13.3749 58.5351 14.055L60.2707 13.061ZM59.9619 11.808V8.112H57.9619V11.808H59.9619ZM59.9619 8.112C59.9619 7.61436 60.0721 7.20561 60.2707 6.85899L58.5351 5.86501C58.1457 6.54506 57.9619 7.30297 57.9619 8.112H59.9619ZM60.2673 6.86489C60.4793 6.50045 60.7582 6.22261 61.1143 6.01679L60.1135 4.28521C59.4523 4.66739 58.9238 5.19688 58.5386 5.85911L60.2673 6.86489ZM61.1109 6.01876C61.4575 5.82024 61.8663 5.71 62.3639 5.71V3.71C61.5549 3.71 60.797 3.89376 60.1169 4.28324L61.1109 6.01876ZM62.3639 5.71C62.8615 5.71 63.2703 5.82024 63.6169 6.01876L64.6109 4.28324C63.9308 3.89376 63.1729 3.71 62.3639 3.71V5.71ZM63.6169 6.01876C63.9759 6.22435 64.2516 6.50002 64.4571 6.85899L66.1927 5.86501C65.8102 5.19731 65.2786 4.66565 64.6109 4.28324L63.6169 6.01876ZM64.4571 6.85899C64.6557 7.20561 64.7659 7.61436 64.7659 8.112H66.7659C66.7659 7.30297 66.5821 6.54506 66.1927 5.86501L64.4571 6.85899ZM64.7659 8.112V11.808H66.7659V8.112H64.7659ZM64.7659 11.808C64.7659 12.3056 64.6557 12.7144 64.4571 13.061L66.1927 14.055C66.5821 13.3749 66.7659 12.617 66.7659 11.808H64.7659ZM64.4591 13.0576C64.2533 13.4137 63.9755 13.6926 63.611 13.9047L64.6168 15.6333C65.279 15.2481 65.8085 14.7196 66.1907 14.0584L64.4591 13.0576ZM63.6169 13.9012C63.2703 14.0998 62.8615 14.21 62.3639 14.21V16.21C63.1729 16.21 63.9308 16.0262 64.6109 15.6368L63.6169 13.9012ZM62.3639 15.013C62.9293 15.013 63.4669 14.8743 63.9527 14.5857L62.9311 12.8663C62.7729 12.9603 62.5918 13.013 62.3639 13.013V15.013ZM63.9527 14.5857C64.4183 14.309 64.7949 13.9324 65.0716 13.4668L63.3522 12.4452C63.2462 12.6236 63.1095 12.7603 62.9311 12.8663L63.9527 14.5857ZM65.0748 13.4614C65.3592 12.9759 65.4989 12.4411 65.4989 11.878H63.4989C63.4989 12.0989 63.4473 12.2828 63.349 12.4506L65.0748 13.4614ZM65.4989 11.878V8.035H63.4989V11.878H65.4989ZM65.4989 8.035C65.4989 7.46958 65.3602 6.93196 65.0716 6.44617L63.3522 7.46783C63.4462 7.62603 63.4989 7.80708 63.4989 8.035H65.4989ZM65.0716 6.44617C64.7949 5.98058 64.4183 5.60397 63.9527 5.32732L62.9311 7.04668C63.1095 7.15269 63.2462 7.28942 63.3522 7.46783L65.0716 6.44617ZM63.9527 5.32732C63.4669 5.03866 62.9293 4.9 62.3639 4.9V6.9C62.5918 6.9 62.7729 6.95268 62.9311 7.04668L63.9527 5.32732ZM62.3639 4.9C61.8008 4.9 61.266 5.03972 60.7805 5.32412L61.7913 7.04988C61.9591 6.95161 62.143 6.9 62.3639 6.9V4.9ZM60.7751 5.32732C60.3095 5.60397 59.9329 5.98058 59.6562 6.44617L61.3756 7.46783C61.4816 7.28942 61.6183 7.15269 61.7967 7.04668L60.7751 5.32732ZM59.6562 6.44617C59.3676 6.93196 59.2289 7.46958 59.2289 8.035H61.2289C61.2289 7.80708 61.2816 7.62603 61.3756 7.46783L59.6562 6.44617ZM59.2289 8.035V11.878H61.2289V8.035H59.2289ZM59.2289 11.878C59.2289 12.4411 59.3686 12.9759 59.653 13.4614L61.3788 12.4506C61.2805 12.2828 61.2289 12.0989 61.2289 11.878H59.2289ZM59.6562 13.4668C59.9329 13.9324 60.3095 14.309 60.7751 14.5857L61.7967 128663C61.6183 12.7603 61.4816 12.6236 61.3756 12.4452L59.6562 13.4668ZM60.7805 14.5889C61.266 14.8733 61.8008 15.013 62.3639 15.013V13.013C62.143 13.013 61.9591 12.9614 61.7913 12.8631L60.7805 14.5889Z" fill="#10A1D0" mask="url(#path-2-inside-1_4_3407)"/>
</svg>
