<svg width="21" height="20" viewBox="0 0 21 20" fill="none" xmlns="http://www.w3.org/2000/svg">
<path d="M10.2313 0C4.70852 0 0.231323 4.4772 0.231323 10C0.231323 14.6896 3.46012 18.6248 7.81572 19.7056V13.056H5.75372V10H7.81572V8.6832C7.81572 5.2796 9.35612 3.702 12.6977 3.702C13.3313 3.702 14.4245 3.8264 14.8717 3.9504V6.7204C14.6357 6.6956 14.2257 6.6832 13.7165 6.6832C12.0769 6.6832 11.4433 7.3044 11.4433 8.9192V10H14.7097L14.1485 13.056H11.4433V19.9268C16.3949 19.3288 20.2317 15.1128 20.2317 10C20.2313 4.4772 15.7541 0 10.2313 0Z" fill="#10A1D0"/>
</svg>
