<svg width="14" height="19" viewBox="0 0 14 19" fill="none" xmlns="http://www.w3.org/2000/svg">
<path d="M7.2315 0.625C3.63694 0.625 0.712585 3.54937 0.712585 7.14392C0.712585 11.6048 6.54637 18.1536 6.79475 18.4303C7.02805 18.6901 7.43537 18.6897 7.66825 18.4303C7.91662 18.1536 13.7505 11.6048 13.7505 7.14392C13.7504 3.54937 10.826 0.625 7.2315 0.625ZM7.2315 10.4237C5.42299 10.4237 3.9517 8.95236 3.9517 7.14392C3.9517 5.33537 5.42303 3.86409 7.2315 3.86409C9.03997 3.86409 10.5113 5.33541 10.5113 7.14392C10.5113 8.95247 9.03997 10.4237 7.2315 10.4237Z" fill="white"/>
</svg>
