<svg width="25" height="24" viewBox="0 0 25 24" fill="none" xmlns="http://www.w3.org/2000/svg">
<path d="M24.8962 24L23.1754 17.837C24.2373 16.033 24.7953 13.988 24.7942 11.891C24.7912 5.335 19.349 0 12.6624 0C9.41751 0.001 6.37155 1.24 4.08044 3.488C1.79036 5.736 0.529533 8.724 0.530554 11.902C0.533615 18.459 5.97576 23.794 12.6624 23.794C14.6924 23.793 16.6927 23.294 18.4646 22.346L24.8962 24ZM18.1668 20.193C16.4571 21.188 14.825 21.784 12.6665 21.785C7.10907 21.785 2.58194 17.351 2.57888 11.9C2.57684 6.438 7.08254 2.01 12.6583 2.008C18.2198 2.008 22.7439 6.442 22.7459 11.892C22.7469 14.117 22.0818 15.783 20.9648 17.526L21.9839 21.174L18.1668 20.193ZM6.55108 14.729C6.62657 14.605 6.82854 14.531 7.13253 14.382C7.43549 14.233 8.92583 13.514 9.20432 13.415C9.48178 13.316 9.68375 13.266 9.88675 13.564C10.0887 13.861 10.6702 14.531 10.8466 14.729C11.0231 14.927 11.2006 14.952 11.5036 14.803C11.8065 14.654 12.7838 14.341 13.9416 13.328C14.8423 12.54 15.4513 11.567 15.6278 11.269C15.8042 10.972 15.6461 10.811 15.4952 10.663C15.3585 10.53 15.1922 10.316 15.0402 10.142C14.8862 9.97 14.8362 9.846 14.7342 9.647C14.6332 9.449 14.6832 9.275 14.7597 9.126C14.8362 8.978 15.4421 7.515 15.6941 6.92C15.9409 6.341 16.1909 6.419 16.3765 6.41L16.958 6.4C17.1599 6.4 17.4884 6.474 17.7659 6.772C18.0433 7.07 18.8268 7.788 18.8268 9.251C18.8268 10.714 17.7404 12.127 17.5894 12.325C17.4374 12.523 15.4523 15.525 12.4115 16.812C11.6882 17.118 11.1231 17.301 10.6834 17.438C9.95714 17.664 9.29612 17.632 8.77384 17.556C8.19137 17.471 6.98054 16.837 6.72755 16.143C6.47458 15.448 6.47457 14.853 6.55108 14.729Z" fill="#21FF52"/>
</svg>
