<svg width="22" height="94" viewBox="0 0 22 94" fill="none" xmlns="http://www.w3.org/2000/svg">
<path fill-rule="evenodd" clip-rule="evenodd" d="M2.95051 75.5802C2.95051 74.9822 3.20128 74.4087 3.64765 73.9859C4.09403 73.563 4.69944 73.3255 5.33071 73.3255H17.2317C17.863 73.3255 18.4684 73.563 18.9147 73.9859C19.3611 74.4087 19.6119 74.9822 19.6119 75.5802V76.7075H20.802C21.1176 76.7075 21.4203 76.8263 21.6435 77.0377C21.8667 77.2492 21.9921 77.5359 21.9921 77.8349C21.9921 78.1339 21.8667 78.4206 21.6435 78.6321C21.4203 78.8435 21.1176 78.9623 20.802 78.9623V91.3632C21.1176 91.3632 21.4203 91.482 21.6435 91.6934C21.8667 91.9048 21.9921 92.1916 21.9921 92.4906C21.9921 92.7896 21.8667 93.0763 21.6435 93.2877C21.4203 93.4991 21.1176 93.6179 20.802 93.6179H1.76041C1.44478 93.6179 1.14207 93.4991 0.918884 93.2877C0.695697 93.0763 0.570313 92.7896 0.570312 92.4906C0.570312 92.1916 0.695697 91.9048 0.918884 91.6934C1.14207 91.482 1.44478 91.3632 1.76041 91.3632V78.9623C1.44478 78.9623 1.14207 78.8435 0.918884 78.6321C0.695697 78.4206 0.570313 78.1339 0.570312 77.8349C0.570312 77.5359 0.695697 77.2492 0.918884 77.0377C1.14207 76.8263 1.44478 76.7075 1.76041 76.7075H2.95051V75.5802ZM17.2317 75.5802V76.7075H5.33071V75.5802H17.2317ZM18.4218 78.9623V91.3632H14.2564V88.5448C14.2564 87.7973 13.943 87.0805 13.385 86.5519C12.827 86.0233 12.0703 85.7264 11.2812 85.7264C10.4921 85.7264 9.73535 86.0233 9.17738 86.5519C8.61941 87.0805 8.30595 87.7973 8.30595 88.5448V91.3632H4.14061V78.9623H18.4218ZM11.2812 87.9811C11.439 87.9811 11.5904 88.0405 11.702 88.1462C11.8136 88.2519 11.8762 88.3953 11.8762 88.5448V91.3632H10.6861V88.5448C10.6861 88.3953 10.7488 88.2519 10.8604 88.1462C10.972 88.0405 11.1234 87.9811 11.2812 87.9811ZM6.5208 84.5991C6.83644 84.5991 7.13914 84.7178 7.36233 84.9292C7.58552 85.1407 0.570312 -0.298211 0.570312 0.000782924L7.7109 86.8538C7.7109 87.1528 7.58552 87.4395 7.36233 87.6509C7.13914 87.8624 6.83644 87.9811 6.5208 87.9811C6.20517 87.9811 5.90246 87.8624 5.67928 87.6509C5.45609 87.4395 5.33071 87.1528 5.33071 86.8538V85.7264C5.33071 85.4274 5.45609 85.1407 5.67928 84.9292C5.90246 84.7178 6.20517 84.5991 6.5208 84.5991ZM16.0416 84.5991C16.3331 84.5991 16.6144 84.7005 16.8323 84.884C17.0501 85.0674 17.1893 85.3203 17.2234 85.5945L17.2317 85.7264V86.8538C17.2314 87.1411 17.1152 87.4175 16.907 87.6264C16.6987 87.8354 16.4141 87.9611 16.1113 87.9779C15.8085 87.9948 15.5104 87.9015 15.2777 87.717C15.0451 87.5326 14.8957 87.271 14.8598 86.9857L14.8515 86.8538V85.7264C14.8515 85.4274 14.9769 85.1407 15.2001 84.9292C15.4233 84.7178 15.726 84.5991 16.0416 84.5991ZM6.5208 80.0896C6.8123 80.0897 7.09364 80.191 7.31147 80.3745C7.5293 80.558 7.66847 80.8108 7.70257 81.0851L7.7109 81.217V82.3443C7.71057 82.6317 7.59442 82.9081 7.38619 83.117C7.17796 83.3259 6.89336 83.4517 6.59055 83.4685C6.28774 83.4853 5.98957 83.392 5.75696 83.2076C5.52435 83.0232 5.37486 82.7616 5.33904 82.4762L5.33071 82.3443V81.217C5.33071 80.918 5.45609 80.6312 5.67928 80.4198C5.90246 80.2084 6.20517 80.0896 6.5208 80.0896ZM11.2812 80.0896C11.5727 80.0897 11.854 80.191 12.0719 80.3745C12.2897 80.558 12.4289 80.8108 12.463 81.0851L12.4713 81.217V82.3443C12.471 82.6317 12.3548 82.9081 12.1466 83.117C11.9383 83.3259 11.6538 83.4517 11.3509 83.4685C11.0481 83.4853 10.75 83.392 10.5174 83.2076C10.2847 83.0232 10.1353 82.7616 10.0994 82.4762L10.0911 82.3443V81.217C10.0911 80.918 10.2165 80.6312 10.4397 80.4198C10.6629 80.2084 10.9656 80.0896 11.2812 80.0896ZM16.0416 80.0896C16.3572 80.0896 16.6599 80.2084 16.8831 80.4198C17.1063 80.6312 17.2317 80.918 17.2317 81.217V82.3443C17.2317 82.6433 17.1063 82.9301 16.8831 83.1415C16.6599 83.3529 16.3572 83.4717 16.0416 83.4717C15.726 83.4717 15.4233 83.3529 15.2001 83.1415C14.9769 82.9301 14.8515 82.6433 14.8515 82.3443V81.217C14.8515 80.918 14.9769 80.6312 15.2001 80.4198C15.4233 80.2084 15.726 80.0896 16.0416 80.0896Z" fill="#10A1D0"/>
</svg>
