<svg width="17" height="14" viewBox="0 0 17 14" fill="none" xmlns="http://www.w3.org/2000/svg">
<path fill-rule="evenodd" clip-rule="evenodd" d="M1.44051 1.45801L6.30332 6.32293C7.36391 7.38148 9.09761 7.3824 10.1591 6.32293L15.0219 1.45801C15.0709 1.40904 15.0637 1.32838 15.0069 1.28876C14.511 0.942869 13.9075 0.737793 13.2575 0.737793H3.205C2.55492 0.737793 1.95147 0.942903 1.45548 1.28876C1.39867 1.32838 1.39154 1.40904 1.44051 1.45801ZM0.140991 3.80178C0.140991 3.2906 0.267729 2.80762 0.490974 2.38311C0.525883 2.3167 0.614375 2.30328 0.667419 2.35632L5.46867 7.15757C6.98907 8.68019 9.47244 8.68107 10.9938 7.15757L15.795 2.35632C15.848 2.30328 15.9366 2.3167 15.9714 2.38311C16.1946 2.80762 16.3214 3.29063 16.3214 3.80178V10.198C16.3214 11.8888 14.9461 13.262 13.2575 13.262H3.205C1.51638 13.262 0.140991 11.8888 0.140991 10.198V3.80178Z" fill="white"/>
</svg>
