<svg width="18" height="20" viewBox="0 0 18 20" fill="none" xmlns="http://www.w3.org/2000/svg">
<path d="M2.55044 2.55031C4.18338 0.917375 6.39812 0 8.70744 0C11.0168 0 13.2315 0.917375 14.8644 2.55031C16.4974 4.18325 17.4148 6.39799 17.4148 8.70731C17.4148 11.0166 16.4974 13.2314 14.8644 14.8643L13.6774 16.0383C12.8028 16.8963 11.6674 18.0003 10.2714 19.3503C9.85187 19.756 9.29107 19.9828 8.70744 19.9828C8.12381 19.9828 7.56302 19.756 7.14344 19.3503L3.65244 15.9543C3.21311 15.5236 2.84578 15.1603 2.55044 14.8643C1.74186 14.0558 1.10045 13.0959 0.662841 12.0395C0.225234 10.9831 0 9.85079 0 8.70731C0 7.56384 0.225234 6.43157 0.662841 5.37514C1.10045 4.31872 1.74186 3.35884 2.55044 2.55031ZM13.8034 3.61031C13.1341 2.94103 12.3395 2.41014 11.465 2.04795C10.5904 1.68577 9.65314 1.49937 8.70659 1.49942C7.76003 1.49947 6.82276 1.68595 5.94827 2.04822C5.07379 2.4105 4.27922 2.94147 3.60994 3.61081C2.94066 4.28016 2.40977 5.07478 2.04758 5.9493C1.68539 6.82382 1.499 7.76111 1.49905 8.70767C1.4991 9.65422 1.68558 10.5915 2.04785 11.466C2.41013 12.3405 2.94109 13.135 3.61044 13.8043L5.09844 15.2723C5.91711 16.073 6.94644 17.073 8.18644 18.2723C8.32627 18.4073 8.51306 18.4828 8.70744 18.4828C8.90183 18.4828 9.08862 18.4073 9.22844 18.2723L12.6234 14.9723C13.0934 14.5116 13.4868 14.1223 13.8034 13.8043C15.1549 12.4527 15.9142 10.6197 15.9142 8.70831C15.9142 6.79696 15.1549 4.96388 13.8034 3.61231M8.70744 5.98131C9.10167 5.98131 9.49204 6.05896 9.85626 6.20983C10.2205 6.36069 10.5514 6.58182 10.8302 6.86058C11.1089 7.13934 11.3301 7.47028 11.4809 7.8345C11.6318 8.19872 11.7094 8.58909 11.7094 8.98331C11.7094 9.37754 11.6318 9.76791 11.4809 10.1321C11.3301 10.4963 11.1089 10.8273 10.8302 11.106C10.5514 11.3848 10.2205 11.6059 9.85626 11.7568C9.49204 11.9077 9.10167 11.9853 8.70744 11.9853C7.92088 11.971 7.17139 11.6484 6.62021 11.0871C6.06904 10.5258 5.76023 9.7705 5.76023 8.98381C5.76023 8.19712 6.06904 7.44187 6.62021 6.88054C7.17139 6.31921 7.92088 5.99667 8.70744 5.98231M8.70744 7.48231C8.30909 7.48231 7.92705 7.64056 7.64537 7.92224C7.36369 8.20392 7.20544 8.58596 7.20544 8.98431C7.20544 9.38267 7.36369 9.76471 7.64537 10.0464C7.92705 10.3281 8.30909 10.4863 8.70744 10.4863C9.09896 10.4762 9.47104 10.3136 9.74438 10.0331C10.0177 9.75261 10.1707 9.37646 10.1707 8.98481C10.1707 8.59317 10.0177 8.21701 9.74438 7.93653C9.47104 7.65604 9.09896 7.49342 8.70744 7.48331" fill="#10A1D0"/>
</svg>
