<svg width="28" height="39" viewBox="0 0 28 39" fill="none" xmlns="http://www.w3.org/2000/svg">
<path d="M14.4142 34.4222L14.4325 34.4295C15.5942 35.867 17.1667 36.9201 18.8904 37.4154C20.6142 37.9111 22.3858 37.8186 23.9128 37.154L25.2418 36.578C25.835 36.3199 26.2725 35.8223 26.4583 35.1949C26.6441 34.5676 26.5631 33.8617 26.2328 33.2323L23.1194 27.3041C22.7886 26.6749 22.2359 26.1742 21.5828 25.9117C20.9296 25.6492 20.2295 25.6464 19.6359 25.9041C19.0421 26.162 18.3415 26.1591 17.6879 25.8964C17.0343 25.6337 16.4812 25.1328 16.1502 24.5033L11.1661 15.0097C10.8358 14.3805 10.7548 13.6745 10.9406 13.0471C11.1264 12.4198 11.5639 11.9223 12.1571 11.664C12.7502 11.4058 13.1877 10.9083 13.3735 10.2809C13.5593 9.65354 13.4783 8.94767 13.1481 8.31828L10.0346 2.39008C9.8715 2.07668 9.65156 1.79147 9.38744 1.55085C9.12328 1.31023 8.82017 1.11895 8.49551 0.988008C8.17083 0.857078 7.83103 0.789067 7.4956 0.787873C7.16019 0.786688 6.83578 0.852372 6.54102 0.981125L5.212 1.55715C3.68511 2.22225 2.49407 3.4195 1.83534 4.95141C1.17658 6.48332 1.08946 8.2584 1.58833 9.98391L1.58377 9.99931C4.34991 18.7056 8.70534 26.9963 14.4142 34.4222Z" stroke="white" stroke-width="1.5" stroke-linecap="round" stroke-linejoin="round"/>
</svg>
