<svg width="32" height="30" viewBox="0 0 32 30" fill="none" xmlns="http://www.w3.org/2000/svg">
<g clip-path="url(#clip0_4_3393)">
<path d="M4.74438 3.75H8.50371V7.5H4.74438V3.75Z" fill="#10A1D0"/>
<path d="M12.263 0V11.25H0.985046V0H12.263ZM10.3834 1.875H2.86471V9.375H10.3834V1.875ZM8.5037 22.5H4.74437V26.25H8.5037V22.5Z" fill="#10A1D0"/>
<path d="M12.263 18.75V30H0.985046V18.75H12.263ZM2.86471 20.625V28.125H10.3834V20.625H2.86471ZM23.541 3.75H27.3003V7.5H23.541V3.75Z" fill="#10A1D0"/>
<path d="M19.7817 0V11.25H31.0597V0H19.7817ZM29.18 1.875V9.375H21.6614V1.875H29.18ZM16.0224 1.875V0H17.902V3.75H16.0224V7.5H14.1427V1.875H16.0224ZM16.0224 11.25V7.5H17.902V11.25H16.0224ZM12.263 15V13.125H14.1427V11.25H16.0224V15H17.902V13.125H27.3003V15H19.7817V16.875H14.1427V15H12.263ZM12.263 15V16.875H4.74437V15H2.86471V16.875H0.985046V13.125H6.62404V15H12.263ZM31.0597 16.875H29.18V13.125H31.0597V16.875ZM29.18 16.875H27.3003V20.625H31.0597V18.75H29.18V16.875ZM21.6614 16.875H25.4207V18.75H23.541V20.625H21.6614V16.875ZM25.4207 22.5V20.625H23.541V22.5H21.6614V24.375H17.902V26.25H23.541V22.5H25.4207ZM25.4207 22.5H31.0597V24.375H27.3003V26.25H25.4207V22.5ZM17.902 20.625V22.5H19.7817V18.75H14.1427V20.625H17.902Z" fill="#10A1D0"/>
<path d="M14.1427 22.5H16.0224V28.125H23.541V30H14.1427V22.5ZM31.0597 26.25V30H25.4207V28.125H29.18V26.25H31.0597Z" fill="#10A1D0"/>
</g>
<rect x="1.48505" y="0.5" width="29.0746" height="29" stroke="#10A1D0"/>
<defs>
<clipPath id="clip0_4_3393">
<rect x="0.985046" width="30.0746" height="30" fill="white"/>
</clipPath>
</defs>
</svg>
