<svg width="30" height="30" viewBox="0 0 30 30" fill="none" xmlns="http://www.w3.org/2000/svg">
<path d="M14.0982 9.11664L13.4282 8.05215M15.8848 11.9548L15.4378 11.2455M17.6711 14.7935L17.2248 14.0838M19.6814 17.9865L19.0113 16.922" stroke="#10A1D0" stroke-width="2" stroke-miterlimit="10" stroke-linecap="round"/>
<path d="M21.9697 10.1803C21.6321 9.64376 21.5136 9.00208 21.6378 8.38358C21.762 7.76508 22.1198 7.21535 22.6397 6.84431C22.6827 6.81341 22.7123 6.7677 22.7224 6.71635C22.7325 6.66499 22.7224 6.61179 22.6942 6.5674L20.9039 3.71951C20.8743 3.67249 20.8268 3.63893 20.772 3.6262C20.7171 3.61347 20.6594 3.62261 20.6114 3.65161L15.9852 6.45008C15.8144 6.55327 15.6706 6.69406 15.5652 6.86127C15.4598 7.02893 15.316 7.17021 15.1452 7.27391C14.9744 7.3776 14.7813 7.44086 14.5813 7.45866C14.3814 7.47617 14.1884 7.53898 14.0175 7.64213L2.15373 14.8168C2.10578 14.8459 2.07154 14.8924 2.05855 14.9461C2.04556 14.9999 2.05489 15.0565 2.08447 15.1036L3.87544 17.9488C3.90326 17.9935 3.94726 18.0261 3.99862 18.0403C4.04998 18.0545 4.1049 18.0491 4.15238 18.0252C4.72381 17.7357 5.38572 17.6684 6.00559 17.8369C6.62546 18.0053 7.15755 18.3971 7.49534 18.9337C7.83313 19.4704 7.95169 20.1123 7.82729 20.731C7.70288 21.3497 7.3447 21.8994 6.82443 22.2703C6.78138 22.3012 6.75184 22.3469 6.74173 22.3982C6.73161 22.4496 6.74167 22.5028 6.76989 22.5472L8.56086 25.3925C8.59047 25.4395 8.63791 25.4731 8.69276 25.4858C8.7476 25.4985 8.80536 25.4894 8.85333 25.4604L20.7181 18.2837C20.8888 18.1802 21.0326 18.0393 21.1382 17.872C21.2436 17.7043 21.3874 17.563 21.5582 17.4594C21.729 17.3557 21.9221 17.2924 22.1221 17.2746C22.3219 17.2572 22.5147 17.1943 22.6854 17.091L27.3116 14.2925C27.3596 14.2635 27.3938 14.217 27.4068 14.1632C27.4198 14.1095 27.4105 14.0528 27.3809 14.0058L25.5899 11.1605C25.5621 11.1159 25.5181 11.0832 25.4668 11.0691C25.4154 11.0549 25.3605 11.0603 25.313 11.0841C24.7421 11.3741 24.0805 11.442 23.4607 11.2744C22.8408 11.1069 22.3084 10.7161 21.9697 10.1803Z" stroke="#10A1D0" stroke-width="2" stroke-miterlimit="10"/>
</svg>
