<svg width="17" height="16" viewBox="0 0 17 16" fill="none" xmlns="http://www.w3.org/2000/svg">
<path d="M0.460327 16L1.61067 11.8913C0.900825 10.6886 0.527834 9.32531 0.528516 7.92732C0.530561 3.55666 4.16842 0 8.63817 0C10.8072 0.000666665 12.8434 0.826665 14.3749 2.32533C15.9057 3.82399 16.7485 5.81599 16.7478 7.93465C16.7458 12.306 13.1079 15.8626 8.63817 15.8626C7.28122 15.862 5.94404 15.5293 4.75961 14.8973L0.460327 16ZM4.95872 13.462C6.10156 14.1253 7.19258 14.5226 8.63544 14.5233C12.3504 14.5233 15.3766 11.5673 15.3786 7.93332C15.38 4.29199 12.3681 1.34 8.6409 1.33866C4.92326 1.33866 1.8991 4.29466 1.89774 7.92798C1.89706 9.41131 2.34165 10.522 3.08831 11.684L2.40711 14.116L4.95872 13.462ZM12.7233 9.81931C12.6729 9.73665 12.5379 9.68731 12.3347 9.58798C12.1322 9.48865 11.1359 9.00931 10.9498 8.94331C10.7643 8.87731 10.6293 8.84398 10.4936 9.04265C10.3586 9.24065 9.96989 9.68731 9.85193 9.81931C9.73396 9.95131 9.61531 9.96798 9.41279 9.86865C9.21027 9.76931 8.55703 9.56065 7.78309 8.88531C7.18098 8.35998 6.7739 7.71132 6.65593 7.51265C6.53797 7.31465 6.64366 7.20732 6.74458 7.10865C6.83595 7.01998 6.9471 6.87732 7.0487 6.76132C7.15166 6.64665 7.18508 6.56399 7.25326 6.43132C7.32077 6.29932 7.28736 6.18332 7.23622 6.08399C7.18508 5.98532 6.78004 5.00999 6.61161 4.61332C6.44659 4.22732 6.27953 4.27932 6.15543 4.27332L5.76676 4.26666C5.63174 4.26666 5.41217 4.31599 5.2267 4.51466C5.04123 4.71332 4.51754 5.19199 4.51754 6.16732C4.51754 7.14265 5.24375 8.08465 5.34467 8.21665C5.44627 8.34865 6.77322 10.35 8.80591 11.208C9.28937 11.412 9.66714 11.534 9.96103 11.6253C10.4465 11.776 10.8884 11.7546 11.2375 11.704C11.6269 11.6473 12.4363 11.2246 12.6054 10.762C12.7745 10.2986 12.7745 9.90198 12.7233 9.81931Z" fill="white"/>
</svg>
